<svg width="102" height="110" viewBox="0 0 102 110" fill="none" xmlns="http://www.w3.org/2000/svg">
<path d="M29.9364 0H6.92995C4.20821 0 2 2.09961 2 4.6875V45.3125C2 47.9004 4.20821 50 6.92995 50H29.9364C32.6581 50 34.8664 47.9004 34.8664 45.3125V4.6875C34.8664 2.09961 32.6581 0 29.9364 0ZM18.4332 46.875C16.6153 46.875 15.1465 45.4785 15.1465 43.75C15.1465 42.0215 16.6153 40.625 18.4332 40.625C20.2511 40.625 21.7198 42.0215 21.7198 43.75C21.7198 45.4785 20.2511 46.875 18.4332 46.875ZM29.9364 36.3281C29.9364 36.9727 29.3818 37.5 28.7039 37.5H8.16244C7.48457 37.5 6.92995 36.9727 6.92995 36.3281V5.85938C6.92995 5.21484 7.48457 4.6875 8.16244 4.6875H28.7039C29.3818 4.6875 29.9364 5.21484 29.9364 5.85938V36.3281Z" fill="#012063"/>
<path d="M96.2295 0H46.93C44.2082 0 42 2.09961 42 4.6875V35.9375C42 38.5254 44.2082 40.625 46.93 40.625H66.6498L65.0064 45.3125H57.6115C56.2455 45.3125 55.1465 46.3574 55.1465 47.6562C55.1465 48.9551 56.2455 50 57.6115 50H85.5479C86.9139 50 88.0129 48.9551 88.0129 47.6562C88.0129 46.3574 86.9139 45.3125 85.5479 45.3125H78.153L76.5097 40.625H96.2295C98.9512 40.625 101.159 38.5254 101.159 35.9375V4.6875C101.159 2.09961 98.9512 0 96.2295 0ZM94.5862 34.375H48.5733V6.25H94.5862V34.375Z" fill="#012063"/>
<path d="M36.946 86.3238C36.9225 82.2271 38.8714 79.135 42.816 76.8578C40.6089 73.855 37.2747 72.203 32.8722 71.8792C28.7045 71.5667 24.1493 74.1899 22.4822 74.1899C20.7212 74.1899 16.6826 71.9909 13.5128 71.9909C6.96186 72.0913 0 76.9583 0 86.8596C0 89.7843 0.563523 92.8057 1.69057 95.9238C3.1933 100.021 8.61721 110.067 14.2759 109.9C17.2344 109.833 19.3242 107.901 23.1749 107.901C26.9082 107.901 28.8454 109.9 32.1443 109.9C37.85 109.821 42.7573 100.69 44.1896 96.5824C36.5351 93.1554 36.946 86.5359 36.946 86.3238V86.3238ZM30.3011 67.9946C33.5062 64.3779 33.2127 61.0849 33.1187 59.9016C30.2894 60.0579 27.0139 61.7323 25.1472 63.7974C23.0927 66.0076 21.8835 68.7425 22.1418 71.8234C25.2059 72.0467 28.0001 70.5509 30.3011 67.9946V67.9946Z" fill="#012063"/>
<path d="M59.7636 79.1689V92.0978C59.7636 93.8172 58.3427 95.1905 56.5344 95.1905C54.7379 95.1905 53 93.806 53 92.0978V79.1689C53 77.483 54.7379 76.0986 56.5344 76.0986C58.3075 76.0986 59.7636 77.483 59.7636 79.1689ZM61.0317 96.6978C61.0317 98.5288 62.5817 100.003 64.5075 100.003H66.8442L66.8794 106.824C66.8794 110.944 73.3612 110.911 73.3612 106.824V100.003H77.7293V106.824C77.7293 110.922 84.2463 110.933 84.2463 106.824V100.003H86.6182C88.5205 100.003 90.0705 98.5288 90.0705 96.6978V76.668H61.0317V96.6978V96.6978ZM90.1526 75.585H60.9026C60.9026 70.8064 63.9086 66.6531 68.3707 64.4871L66.1279 60.5459C65.7991 59.9988 66.6328 59.6527 66.9146 60.1216L69.1926 64.0963C73.2907 62.3658 77.9994 62.4551 81.9096 64.0963L84.1758 60.1328C84.4694 59.6527 85.2913 60.01 84.9626 60.5571L82.7198 64.4871C87.1466 66.6531 90.1526 70.8064 90.1526 75.585V75.585ZM70.1085 69.3885C70.1085 68.7521 69.5684 68.2162 68.8756 68.2162C68.2063 68.2162 67.6779 68.7521 67.6779 69.3885C67.6779 70.0249 68.218 70.5608 68.8756 70.5608C69.5684 70.5608 70.1085 70.0249 70.1085 69.3885ZM83.4243 69.3885C83.4243 68.7521 82.8842 68.2162 82.2266 68.2162C81.5338 68.2162 80.9937 68.7521 80.9937 69.3885C80.9937 70.0249 81.5338 70.5608 82.2266 70.5608C82.8842 70.5608 83.4243 70.0249 83.4243 69.3885ZM94.556 76.0986C92.7829 76.0986 91.3269 77.4495 91.3269 79.1689V92.0978C91.3269 93.8172 92.7829 95.1905 94.556 95.1905C96.3643 95.1905 98.0904 93.806 98.0904 92.0978V79.1689C98.0904 77.4495 96.3526 76.0986 94.556 76.0986Z" fill="#012063"/>
</svg>
