<svg width="196" height="46" viewBox="0 0 196 46" fill="none" xmlns="http://www.w3.org/2000/svg">
<path d="M55.7903 30.4429L53.4585 24.7723C53.2834 24.3743 52.955 24.0317 52.4733 23.7443C54.2686 23.1916 55.1663 21.9093 55.1663 19.8976C55.1663 18.7037 54.8379 17.6536 54.1811 16.7472C53.3929 15.7082 51.9587 15.1886 49.8787 15.1886H44V30.4429H47.7112V24.109H48.3352C48.7731 24.109 49.0577 24.1643 49.1891 24.2748C49.3423 24.3854 49.4956 24.6286 49.6488 25.0044L51.8493 30.4429H55.7903ZM47.7112 22.7826V16.5483H49.3533C50.0101 16.5483 50.5246 16.8799 50.8968 17.5431C51.2691 18.2063 51.4552 18.958 51.4552 19.7981C51.4552 20.6382 51.2691 21.3456 50.8968 21.9204C50.5246 22.4952 50.0101 22.7826 49.3533 22.7826H47.7112Z" fill="#012063"/>
<path d="M64.4242 29.0501L65.3438 30.4429H67.7741V22.3515C67.7741 19.588 66.0992 18.2063 62.7493 18.2063C61.0634 18.2063 59.8592 18.549 59.1366 19.2343C58.4141 19.8976 57.9872 20.9366 57.8558 22.3515L60.8773 22.7163C60.9648 20.9256 61.556 20.0302 62.6507 20.0302C63.636 20.0302 64.1286 20.7266 64.1286 22.1194V23.3132L62.0924 23.7111C60.3627 24.0206 59.1366 24.4517 58.4141 25.0044C57.6916 25.535 57.3303 26.3198 57.3303 27.3589C57.3303 28.3979 57.6368 29.2269 58.2499 29.8459C58.8848 30.4429 59.7168 30.7413 60.7459 30.7413C62.2785 30.7413 63.5046 30.1776 64.4242 29.0501ZM60.5817 27.2594C60.5817 26.1319 61.2714 25.4134 62.6507 25.1039L64.1286 24.8054V27.7568C63.4718 28.4642 62.8478 28.8179 62.2566 28.8179C61.14 28.8179 60.5817 28.2984 60.5817 27.2594Z" fill="#012063"/>
<path d="M71.1652 18.3721V18.5048H69.3917V20.395H71.1652V30.4429H74.8107V20.395H77.0439V18.5048H74.8107V17.5763C74.8107 17.2004 74.9092 16.8909 75.1063 16.6477C75.3252 16.3825 75.6317 16.2498 76.0258 16.2498C76.7046 16.2498 77.2957 16.6477 77.7993 17.4436L78.8831 14.7907C77.7884 14.2822 76.7265 14.028 75.6974 14.028C72.6759 14.028 71.1652 15.476 71.1652 18.3721Z" fill="#012063"/>
<path d="M84.9724 29.0501L85.8919 30.4429H88.3223V22.3515C88.3223 19.588 86.6473 18.2063 83.2974 18.2063C81.6115 18.2063 80.4073 18.549 79.6848 19.2343C78.9623 19.8976 78.5353 20.9366 78.4039 22.3515L81.4254 22.7163C81.513 20.9256 82.1041 20.0302 83.1989 20.0302C84.1842 20.0302 84.6768 20.7266 84.6768 22.1194V23.3132L82.6406 23.7111C80.9109 24.0206 79.6848 24.4517 78.9623 25.0044C78.2397 25.535 77.8785 26.3198 77.8785 27.3589C77.8785 28.3979 78.185 29.2269 78.798 29.8459C79.433 30.4429 80.265 30.7413 81.294 30.7413C82.8267 30.7413 84.0528 30.1776 84.9724 29.0501ZM81.1298 27.2594C81.1298 26.1319 81.8195 25.4134 83.1989 25.1039L84.6768 24.8054V27.7568C84.0199 28.4642 83.3959 28.8179 82.8048 28.8179C81.6881 28.8179 81.1298 28.2984 81.1298 27.2594Z" fill="#012063"/>
<path d="M101.467 24.9712V24.5733C101.467 20.3287 99.7159 18.2063 96.2127 18.2063C92.622 18.2063 90.8266 20.2955 90.8266 24.4738C90.8266 26.574 91.2426 28.1437 92.0746 29.1827C92.9285 30.2218 94.275 30.7413 96.1142 30.7413C97.9752 30.7413 99.278 30.4097 100.022 29.7465C100.767 29.0832 101.194 28.1768 101.303 27.0272L98.2818 26.9609C98.2818 28.2653 97.6906 28.9174 96.5083 28.9174C95.8077 28.9174 95.2931 28.6411 94.9647 28.0884C94.6363 27.5136 94.4721 26.4745 94.4721 24.9712H101.467ZM97.9205 23.1474H94.5378C94.6253 21.9314 94.7896 21.1135 95.0304 20.6934C95.2931 20.2513 95.6982 20.0302 96.2456 20.0302C96.8148 20.0302 97.2199 20.2844 97.4607 20.7929C97.7235 21.2793 97.8767 22.0641 97.9205 23.1474Z" fill="#012063"/>
<path d="M107.809 30.4429V14.3596L104.13 14.8239V30.4429H107.809Z" fill="#012063"/>
<path d="M120.387 17.2778H125.247V15.1886H116.676V30.4429H120.387V23.7111H124.393V21.6551H120.387V17.2778Z" fill="#012063"/>
<path d="M137.12 24.9712V24.5733C137.12 20.3287 135.369 18.2063 131.866 18.2063C128.275 18.2063 126.479 20.2955 126.479 24.4738C126.479 26.574 126.895 28.1437 127.727 29.1827C128.581 30.2218 129.928 30.7413 131.767 30.7413C133.628 30.7413 134.931 30.4097 135.675 29.7465C136.42 29.0832 136.847 28.1768 136.956 27.0272L133.935 26.9609C133.935 28.2653 133.343 28.9174 132.161 28.9174C131.46 28.9174 130.946 28.6411 130.618 28.0884C130.289 27.5136 130.125 26.4745 130.125 24.9712H137.12ZM133.573 23.1474H130.191C130.278 21.9314 130.442 21.1135 130.683 20.6934C130.946 20.2513 131.351 20.0302 131.898 20.0302C132.468 20.0302 132.873 20.2844 133.114 20.7929C133.376 21.2793 133.53 22.0641 133.573 23.1474Z" fill="#012063"/>
<path d="M141.458 18.5048H139.783V30.4429H143.462V23.0479C143.462 22.3625 143.691 21.8541 144.151 21.5225C144.633 21.1908 145.476 21.025 146.68 21.025V18.4053C145.082 18.4053 143.834 19.1348 142.936 20.5939L141.458 18.5048Z" fill="#012063"/>
<path d="M149.966 18.5048H148.291V30.4429H151.969V23.0479C151.969 22.3625 152.199 21.8541 152.659 21.5225C153.141 21.1908 153.983 21.025 155.188 21.025V18.4053C153.589 18.4053 152.341 19.1348 151.444 20.5939L149.966 18.5048Z" fill="#012063"/>
<path d="M166.717 24.9712V24.5733C166.717 20.3287 164.965 18.2063 161.462 18.2063C157.871 18.2063 156.076 20.2955 156.076 24.4738C156.076 26.574 156.492 28.1437 157.324 29.1827C158.178 30.2218 159.524 30.7413 161.364 30.7413C163.225 30.7413 164.527 30.4097 165.272 29.7465C166.016 29.0832 166.443 28.1768 166.553 27.0272L163.531 26.9609C163.531 28.2653 162.94 28.9174 161.758 28.9174C161.057 28.9174 160.543 28.6411 160.214 28.0884C159.886 27.5136 159.721 26.4745 159.721 24.9712H166.717ZM163.17 23.1474H159.787C159.875 21.9314 160.039 21.1135 160.28 20.6934C160.543 20.2513 160.948 20.0302 161.495 20.0302C162.064 20.0302 162.469 20.2844 162.71 20.7929C162.973 21.2793 163.126 22.0641 163.17 23.1474Z" fill="#012063"/>
<path d="M171.186 17.4105C171.799 17.4105 172.314 17.2115 172.73 16.8136C173.146 16.3935 173.354 15.874 173.354 15.255C173.354 14.6139 173.146 14.0833 172.73 13.6632C172.314 13.2211 171.799 13 171.186 13C170.573 13 170.058 13.2211 169.642 13.6632C169.226 14.0833 169.018 14.6028 169.018 15.2218C169.018 15.8187 169.226 16.3382 169.642 16.7804C170.08 17.2004 170.595 17.4105 171.186 17.4105ZM173.025 30.4429V18.5048H169.347V30.4429H173.025Z" fill="#012063"/>
<path d="M178.156 18.5048H176.481V30.4429H180.16V23.0479C180.16 22.3625 180.39 21.8541 180.849 21.5225C181.331 21.1908 182.174 21.025 183.378 21.025V18.4053C181.78 18.4053 180.532 19.1348 179.634 20.5939L178.156 18.5048Z" fill="#012063"/>
<path d="M191.426 29.0501L192.346 30.4429H194.776V22.3515C194.776 19.588 193.101 18.2063 189.751 18.2063C188.065 18.2063 186.861 18.549 186.139 19.2343C185.416 19.8976 184.989 20.9366 184.858 22.3515L187.879 22.7163C187.967 20.9256 188.558 20.0302 189.653 20.0302C190.638 20.0302 191.131 20.7266 191.131 22.1194V23.3132L189.094 23.7111C187.365 24.0206 186.139 24.4517 185.416 25.0044C184.694 25.535 184.332 26.3198 184.332 27.3589C184.332 28.3979 184.639 29.2269 185.252 29.8459C185.887 30.4429 186.719 30.7413 187.748 30.7413C189.281 30.7413 190.507 30.1776 191.426 29.0501ZM187.584 27.2594C187.584 26.1319 188.273 25.4134 189.653 25.1039L191.131 24.8054V27.7568C190.474 28.4642 189.85 28.8179 189.259 28.8179C188.142 28.8179 187.584 28.2984 187.584 27.2594Z" fill="#012063"/>
<path d="M87.791 42.8673V35.7542H89.7047C90.7981 35.7542 91.627 36.0426 92.1913 36.6194C92.7591 37.1927 93.043 38.0757 93.043 39.2683C93.043 40.4432 92.7538 41.3367 92.1755 41.949C91.6007 42.5612 90.7876 42.8673 89.7362 42.8673H87.791ZM88.9581 41.9171H89.5995C90.339 41.9171 90.8998 41.6995 91.2818 41.2642C91.6638 40.8289 91.8548 40.1636 91.8548 39.2683C91.8548 38.3659 91.6708 37.7129 91.3028 37.3095C90.9383 36.9061 90.3811 36.7044 89.6311 36.7044H88.9581V41.9171Z" fill="#012063"/>
<path d="M94.4677 42.8673V35.7542H98.6629V36.7362H95.6348V38.6684H98.195V39.6505H95.6348V41.8746H98.7733V42.8673H94.4677Z" fill="#012063"/>
<path d="M102.217 43C101.218 43 100.384 42.6673 99.7144 42.002L100.393 41.1899C100.645 41.4376 100.929 41.6322 101.244 41.7738C101.563 41.9118 101.894 41.9808 102.238 41.9808C102.662 41.9808 102.983 41.8923 103.2 41.7154C103.421 41.5385 103.531 41.3031 103.531 41.0094C103.531 40.8006 103.48 40.6325 103.379 40.5051C103.277 40.3777 103.14 40.268 102.969 40.176C102.797 40.084 102.602 39.9902 102.385 39.8946L101.418 39.47C101.19 39.3744 100.966 39.2435 100.745 39.0772C100.527 38.9108 100.349 38.7021 100.209 38.4508C100.068 38.1995 99.9982 37.9005 99.9982 37.5537C99.9982 37.1786 100.098 36.8459 100.298 36.5557C100.501 36.2655 100.78 36.0373 101.134 35.871C101.488 35.7046 101.891 35.6215 102.343 35.6215C103.209 35.6215 103.922 35.9099 104.483 36.4867L103.883 37.2299C103.663 37.0352 103.426 36.8884 103.174 36.7893C102.925 36.6867 102.644 36.6354 102.332 36.6354C101.982 36.6354 101.7 36.7079 101.486 36.853C101.276 36.9945 101.171 37.2033 101.171 37.4794C101.171 37.674 101.225 37.8386 101.334 37.973C101.442 38.1075 101.582 38.2225 101.754 38.3181C101.926 38.4136 102.106 38.5021 102.296 38.5835L103.263 38.9922C103.68 39.1692 104.027 39.4045 104.304 39.6982C104.581 39.992 104.719 40.3972 104.719 40.9138C104.719 41.296 104.619 41.6446 104.42 41.9596C104.223 42.2745 103.938 42.5276 103.563 42.7187C103.191 42.9062 102.743 43 102.217 43Z" fill="#012063"/>
<path d="M105.991 42.8673V35.7542H107.159V42.8673H105.991Z" fill="#012063"/>
<path d="M111.822 43C111.198 43 110.639 42.8638 110.145 42.5913C109.654 42.3188 109.267 41.9118 108.983 41.3704C108.702 40.8254 108.562 40.1477 108.562 39.3373C108.562 38.5163 108.708 37.8315 108.999 37.283C109.289 36.7309 109.686 36.3169 110.187 36.0408C110.691 35.7613 111.261 35.6215 111.895 35.6215C112.379 35.6215 112.793 35.7099 113.136 35.8869C113.483 36.0603 113.767 36.2602 113.988 36.4867L113.336 37.2193C113.157 37.0423 112.957 36.9008 112.736 36.7946C112.516 36.6884 112.241 36.6354 111.911 36.6354C111.259 36.6354 110.737 36.8636 110.344 37.3201C109.952 37.7731 109.756 38.4349 109.756 39.3054C109.756 40.1654 109.941 40.8271 110.313 41.2907C110.688 41.7508 111.236 41.9808 111.958 41.9808C112.165 41.9808 112.367 41.9507 112.563 41.8906C112.763 41.8269 112.922 41.7419 113.041 41.6358V40.022H111.701V39.0612H114.082V42.1613C113.844 42.3878 113.527 42.5842 113.131 42.7505C112.738 42.9168 112.302 43 111.822 43Z" fill="#012063"/>
<path d="M115.633 42.8673V35.7542H116.821L119.108 39.8628L119.844 41.3757H119.886C119.862 41.0112 119.83 40.6201 119.792 40.2025C119.757 39.7814 119.739 39.3762 119.739 38.9869V35.7542H120.843V42.8673H119.644L117.368 38.7427L116.637 37.2458H116.59C116.618 37.6174 116.65 38.0049 116.685 38.4083C116.72 38.8118 116.737 39.2099 116.737 39.6027V42.8673H115.633Z" fill="#012063"/>
<path d="M126.121 42.8673V36.7362H124.055V35.7542H129.339V36.7362H127.278V42.8673H126.121Z" fill="#012063"/>
<path d="M130.501 42.8673V35.7542H134.696V36.7362H131.668V38.6684H134.228V39.6505H131.668V41.8746H134.806V42.8673H130.501Z" fill="#012063"/>
<path d="M138.98 43C138.385 43 137.848 42.862 137.372 42.586C136.899 42.3064 136.524 41.8941 136.247 41.3491C135.973 40.8041 135.837 40.13 135.837 39.3267C135.837 38.5304 135.977 37.858 136.257 37.3095C136.538 36.7574 136.918 36.3381 137.398 36.0514C137.882 35.7648 138.425 35.6215 139.028 35.6215C139.455 35.6215 139.844 35.7082 140.195 35.8816C140.545 36.055 140.831 36.262 141.052 36.5026L140.405 37.2352C140.223 37.0476 140.018 36.9008 139.79 36.7946C139.566 36.6884 139.317 36.6354 139.043 36.6354C138.441 36.6354 137.953 36.8672 137.582 37.3307C137.214 37.7908 137.03 38.4419 137.03 39.2842C137.03 40.1406 137.205 40.8041 137.556 41.2748C137.906 41.7455 138.388 41.9808 139.001 41.9808C139.32 41.9808 139.601 41.9189 139.843 41.795C140.088 41.6676 140.314 41.4889 140.521 41.2589L141.167 41.9702C140.887 42.3028 140.563 42.5576 140.195 42.7346C139.827 42.9115 139.422 43 138.98 43Z" fill="#012063"/>
<path d="M142.371 42.8673V35.7542H143.538V38.6419H146.493V35.7542H147.65V42.8673H146.493V39.6611H143.538V42.8673H142.371Z" fill="#012063"/>
<path d="M149.437 42.8673V35.7542H150.625L152.912 39.8628L153.648 41.3757H153.69C153.666 41.0112 153.634 40.6201 153.595 40.2025C153.56 39.7814 153.543 39.3762 153.543 38.9869V35.7542H154.647V42.8673H153.448L151.172 38.7427L150.441 37.2458H150.394C150.422 37.6174 150.453 38.0049 150.488 38.4083C150.523 38.8118 150.541 39.2099 150.541 39.6027V42.8673H149.437Z" fill="#012063"/>
<path d="M159.137 43C158.513 43 157.969 42.8549 157.507 42.5647C157.044 42.2745 156.687 41.8534 156.434 41.3013C156.182 40.7457 156.056 40.0734 156.056 39.2842C156.056 38.1022 156.334 37.1963 156.892 36.5663C157.449 35.9364 158.197 35.6215 159.137 35.6215C159.764 35.6215 160.307 35.763 160.766 36.0461C161.229 36.3292 161.586 36.7433 161.839 37.2883C162.095 37.8333 162.222 38.4986 162.222 39.2842C162.222 40.0734 162.095 40.7457 161.839 41.3013C161.586 41.8534 161.229 42.2745 160.766 42.5647C160.307 42.8549 159.764 43 159.137 43ZM159.137 41.9808C159.729 41.9808 160.191 41.7437 160.524 41.2695C160.861 40.7953 161.029 40.1335 161.029 39.2842C161.029 38.4419 160.861 37.7908 160.524 37.3307C160.191 36.8672 159.729 36.6354 159.137 36.6354C158.541 36.6354 158.076 36.8672 157.743 37.3307C157.414 37.7908 157.249 38.4419 157.249 39.2842C157.249 40.1335 157.414 40.7953 157.743 41.2695C158.076 41.7437 158.541 41.9808 159.137 41.9808Z" fill="#012063"/>
<path d="M163.642 42.8673V35.7542H164.809V41.8746H167.769V42.8673H163.642Z" fill="#012063"/>
<path d="M171.396 43C170.772 43 170.229 42.8549 169.767 42.5647C169.304 42.2745 168.946 41.8534 168.694 41.3013C168.442 40.7457 168.316 40.0734 168.316 39.2842C168.316 38.1022 168.594 37.1963 169.151 36.5663C169.709 35.9364 170.457 35.6215 171.396 35.6215C172.024 35.6215 172.567 35.763 173.026 36.0461C173.489 36.3292 173.846 36.7433 174.098 37.2883C174.354 37.8333 174.482 38.4986 174.482 39.2842C174.482 40.0734 174.354 40.7457 174.098 41.3013C173.846 41.8534 173.489 42.2745 173.026 42.5647C172.567 42.8549 172.024 43 171.396 43ZM171.396 41.9808C171.989 41.9808 172.451 41.7437 172.784 41.2695C173.121 40.7953 173.289 40.1335 173.289 39.2842C173.289 38.4419 173.121 37.7908 172.784 37.3307C172.451 36.8672 171.989 36.6354 171.396 36.6354C170.8 36.6354 170.336 36.8672 170.003 37.3307C169.674 37.7908 169.509 38.4419 169.509 39.2842C169.509 40.1335 169.674 40.7953 170.003 41.2695C170.336 41.7437 170.8 41.9808 171.396 41.9808Z" fill="#012063"/>
<path d="M178.777 43C178.154 43 177.595 42.8638 177.1 42.5913C176.61 42.3188 176.222 41.9118 175.939 41.3704C175.658 40.8254 175.518 40.1477 175.518 39.3373C175.518 38.5163 175.663 37.8315 175.954 37.283C176.245 36.7309 176.641 36.3169 177.142 36.0408C177.647 35.7613 178.217 35.6215 178.851 35.6215C179.335 35.6215 179.748 35.7099 180.092 35.8869C180.439 36.0603 180.723 36.2602 180.943 36.4867L180.291 37.2193C180.113 37.0423 179.913 36.9008 179.692 36.7946C179.471 36.6884 179.196 36.6354 178.867 36.6354C178.215 36.6354 177.693 36.8636 177.3 37.3201C176.908 37.7731 176.711 38.4349 176.711 39.3054C176.711 40.1654 176.897 40.8271 177.269 41.2907C177.644 41.7508 178.192 41.9808 178.914 41.9808C179.121 41.9808 179.322 41.9507 179.519 41.8906C179.718 41.8269 179.878 41.7419 179.997 41.6358V40.022H178.656V39.0612H181.038V42.1613C180.8 42.3878 180.482 42.5842 180.086 42.7505C179.694 42.9168 179.258 43 178.777 43Z" fill="#012063"/>
<path d="M182.589 42.8673V35.7542H183.756V42.8673H182.589Z" fill="#012063"/>
<path d="M187.573 43C186.574 43 185.74 42.6673 185.07 42.002L185.748 41.1899C186.001 41.4376 186.285 41.6322 186.6 41.7738C186.919 41.9118 187.25 41.9808 187.594 41.9808C188.018 41.9808 188.339 41.8923 188.556 41.7154C188.777 41.5385 188.887 41.3031 188.887 41.0094C188.887 40.8006 188.836 40.6325 188.735 40.5051C188.633 40.3777 188.496 40.268 188.324 40.176C188.153 40.084 187.958 39.9902 187.741 39.8946L186.774 39.47C186.546 39.3744 186.322 39.2435 186.101 39.0772C185.883 38.9108 185.705 38.7021 185.564 38.4508C185.424 38.1995 185.354 37.9005 185.354 37.5537C185.354 37.1786 185.454 36.8459 185.654 36.5557C185.857 36.2655 186.136 36.0373 186.49 35.871C186.844 35.7046 187.247 35.6215 187.699 35.6215C188.565 35.6215 189.278 35.9099 189.839 36.4867L189.239 37.2299C189.018 37.0352 188.782 36.8884 188.53 36.7893C188.281 36.6867 188 36.6354 187.688 36.6354C187.338 36.6354 187.056 36.7079 186.842 36.853C186.632 36.9945 186.527 37.2033 186.527 37.4794C186.527 37.674 186.581 37.8386 186.689 37.973C186.798 38.1075 186.938 38.2225 187.11 38.3181C187.282 38.4136 187.462 38.5021 187.652 38.5835L188.619 38.9922C189.036 39.1692 189.383 39.4045 189.66 39.6982C189.937 39.992 190.075 40.3972 190.075 40.9138C190.075 41.296 189.975 41.6446 189.775 41.9596C189.579 42.2745 189.294 42.5276 188.919 42.7187C188.547 42.9062 188.098 43 187.573 43Z" fill="#012063"/>
<path d="M192.783 42.8673V36.7362H190.717V35.7542H196V36.7362H193.939V42.8673H192.783Z" fill="#012063"/>
<rect x="22.5807" width="13.7781" height="45.1615" rx="6.88904" transform="rotate(30 22.5807 0)" fill="#E0B2D7"/>
<rect width="7.20053" height="31.7259" rx="3.60027" transform="matrix(-0.866025 -0.5 -0.5 0.866025 34.0988 14.6003)" fill="#74B5E3"/>
</svg>
