<svg width="155" height="161" viewBox="0 0 155 161" fill="none" xmlns="http://www.w3.org/2000/svg">
<rect x="2" y="4" width="4" height="151" rx="2" fill="#B1D7F1"/>
<path d="M23.647 8.13428C23.0168 8.13428 22.4671 7.98747 21.998 7.69385C21.5326 7.39665 21.1709 6.96875 20.9131 6.41016C20.6553 5.84798 20.5264 5.16943 20.5264 4.37451C20.5264 3.57959 20.6553 2.90641 20.9131 2.35498C21.1709 1.80355 21.5326 1.3846 21.998 1.09814C22.4671 0.808105 23.0168 0.663086 23.647 0.663086C24.2808 0.663086 24.8304 0.808105 25.2959 1.09814C25.765 1.3846 26.1284 1.80534 26.3862 2.36035C26.644 2.91178 26.7729 3.58317 26.7729 4.37451C26.7729 5.16943 26.644 5.84798 26.3862 6.41016C26.1284 6.96875 25.765 7.39665 25.2959 7.69385C24.8304 7.98747 24.2808 8.13428 23.647 8.13428ZM23.647 7.19434C24.2736 7.19434 24.766 6.94548 25.124 6.44775C25.4857 5.95003 25.6665 5.25895 25.6665 4.37451C25.6665 3.49365 25.4857 2.81152 25.124 2.32812C24.766 1.84115 24.2736 1.59766 23.647 1.59766C23.0168 1.59766 22.5244 1.84115 22.1699 2.32812C21.8154 2.81152 21.6382 3.49365 21.6382 4.37451C21.6382 5.25895 21.8154 5.95003 22.1699 6.44775C22.5244 6.94548 23.0168 7.19434 23.647 7.19434ZM29.7539 8.13428C29.1667 8.13428 28.7441 7.95524 28.4863 7.59717C28.2321 7.23551 28.105 6.71273 28.105 6.02881V2.62891H29.1738V5.88916C29.1738 6.3654 29.2437 6.70557 29.3833 6.90967C29.5229 7.11377 29.7646 7.21582 30.1084 7.21582C30.3805 7.21582 30.6115 7.14958 30.8013 7.01709C30.991 6.8846 31.2023 6.67155 31.4351 6.37793V2.62891H32.5039V8H31.623L31.5425 7.18359H31.5049C31.2614 7.47005 31.0054 7.70101 30.7368 7.87646C30.4683 8.04834 30.1406 8.13428 29.7539 8.13428ZM36.0005 8.13428C35.4061 8.13428 34.9889 7.9624 34.749 7.61865C34.5127 7.2749 34.3945 6.82552 34.3945 6.27051V3.48828H33.6104V2.68799L34.4429 2.62891L34.5718 1.14111H35.4634V2.62891H36.876V3.48828H35.4634V6.28125C35.4634 6.60352 35.5243 6.85059 35.646 7.02246C35.7713 7.19076 35.9772 7.2749 36.2637 7.2749C36.3532 7.2749 36.4517 7.26058 36.5591 7.23193C36.6665 7.20329 36.7614 7.17285 36.8438 7.14062L37.0425 7.93555C36.8921 7.9821 36.7274 8.02686 36.5483 8.06982C36.3729 8.11279 36.1903 8.13428 36.0005 8.13428ZM40.2114 8.13428C39.7316 8.13428 39.3001 8.02686 38.917 7.81201C38.5339 7.59359 38.2313 7.2749 38.0093 6.85596C37.7873 6.43701 37.6763 5.92139 37.6763 5.30908C37.6763 4.68962 37.7962 4.1722 38.0361 3.75684C38.2796 3.33789 38.6001 3.02279 38.9976 2.81152C39.395 2.60026 39.8283 2.49463 40.2974 2.49463C40.6447 2.49463 40.9508 2.5555 41.2158 2.67725C41.4808 2.79541 41.7028 2.94222 41.8818 3.11768L41.3662 3.79443C41.2122 3.66195 41.0511 3.55811 40.8828 3.48291C40.7181 3.40771 40.5391 3.37012 40.3457 3.37012C39.8838 3.37012 39.506 3.54199 39.2124 3.88574C38.9188 4.22949 38.772 4.70394 38.772 5.30908C38.772 5.91064 38.9134 6.38509 39.1963 6.73242C39.4827 7.07975 39.8551 7.25342 40.3135 7.25342C40.557 7.25342 40.7754 7.21045 40.9688 7.12451C41.1621 7.03857 41.3358 6.92757 41.4897 6.7915L41.9463 7.48438C41.6992 7.7028 41.4271 7.86572 41.1299 7.97314C40.8327 8.08057 40.5265 8.13428 40.2114 8.13428ZM45.2441 8.13428C44.793 8.13428 44.3758 8.02507 43.9927 7.80664C43.6131 7.58822 43.307 7.26953 43.0742 6.85059C42.8451 6.42806 42.7305 5.91602 42.7305 5.31445C42.7305 4.70573 42.8451 4.19189 43.0742 3.77295C43.307 3.354 43.6131 3.03711 43.9927 2.82227C44.3758 2.60384 44.793 2.49463 45.2441 2.49463C45.6917 2.49463 46.1071 2.60384 46.4902 2.82227C46.8734 3.03711 47.1813 3.354 47.4141 3.77295C47.6468 4.19189 47.7632 4.70573 47.7632 5.31445C47.7632 5.91602 47.6468 6.42806 47.4141 6.85059C47.1813 7.26953 46.8734 7.58822 46.4902 7.80664C46.1071 8.02507 45.6917 8.13428 45.2441 8.13428ZM45.2441 7.25342C45.6846 7.25342 46.0319 7.07796 46.2861 6.72705C46.5404 6.37256 46.6675 5.90169 46.6675 5.31445C46.6675 4.72363 46.5404 4.25277 46.2861 3.90186C46.0319 3.54736 45.6846 3.37012 45.2441 3.37012C44.8037 3.37012 44.4582 3.54736 44.2075 3.90186C43.9569 4.25277 43.8315 4.72363 43.8315 5.31445C43.8315 5.90169 43.9569 6.37256 44.2075 6.72705C44.4582 7.07796 44.8037 7.25342 45.2441 7.25342ZM49.1006 8V2.62891H49.9761L50.062 3.38086H50.105C50.3341 3.13737 50.5866 2.92969 50.8623 2.75781C51.138 2.58236 51.4388 2.49463 51.7646 2.49463C52.1836 2.49463 52.5059 2.57878 52.7314 2.74707C52.957 2.91178 53.1253 3.15527 53.2363 3.47754C53.5085 3.1875 53.7842 2.95117 54.0635 2.76855C54.3464 2.58594 54.6543 2.49463 54.9873 2.49463C55.5638 2.49463 55.981 2.67367 56.2388 3.03174C56.5002 3.38981 56.6309 3.91081 56.6309 4.59473V8H55.5728V4.73438C55.5728 4.25814 55.5011 3.91976 55.3579 3.71924C55.2147 3.51514 54.9801 3.41309 54.6543 3.41309C54.2712 3.41309 53.854 3.66016 53.4028 4.1543V8H52.334V4.71826C52.334 4.24202 52.2624 3.90544 52.1191 3.7085C51.9795 3.51156 51.745 3.41309 51.4155 3.41309C51.0431 3.41309 50.626 3.66553 50.1641 4.17041V8H49.1006ZM60.5249 8.13428C60.0379 8.13428 59.5975 8.02507 59.2036 7.80664C58.8097 7.58464 58.4964 7.26416 58.2637 6.84521C58.0309 6.42627 57.9146 5.91781 57.9146 5.31982C57.9146 4.71826 58.0273 4.20801 58.2529 3.78906C58.4785 3.36654 58.7757 3.04606 59.1445 2.82764C59.5169 2.60563 59.918 2.49463 60.3477 2.49463C61.0817 2.49463 61.6296 2.7238 61.9912 3.18213C62.3529 3.63688 62.5337 4.25277 62.5337 5.02979C62.5337 5.13363 62.5301 5.23389 62.5229 5.33057C62.5158 5.42367 62.5068 5.50244 62.4961 5.56689H58.9619C58.9941 6.11833 59.1642 6.54443 59.4722 6.84521C59.7837 7.14242 60.1794 7.29102 60.6592 7.29102C61.1283 7.29102 61.5597 7.16748 61.9536 6.92041L62.3188 7.59717C62.0754 7.75472 61.8032 7.88363 61.5024 7.98389C61.2052 8.08415 60.8794 8.13428 60.5249 8.13428ZM58.9512 4.87939H61.6099C61.6099 3.84456 61.1981 3.32715 60.3745 3.32715C60.0129 3.32715 59.6978 3.45785 59.4292 3.71924C59.1606 3.98063 59.0013 4.36735 58.9512 4.87939ZM65.2515 8.13428C64.8791 8.13428 64.5174 8.06445 64.1665 7.9248C63.8156 7.78158 63.5112 7.60254 63.2534 7.3877L63.7637 6.68945C64 6.87565 64.2381 7.02783 64.478 7.146C64.7179 7.26058 64.9865 7.31787 65.2837 7.31787C65.6203 7.31787 65.8674 7.24805 66.0249 7.1084C66.1825 6.96517 66.2612 6.78792 66.2612 6.57666C66.2612 6.40837 66.2004 6.26693 66.0786 6.15234C65.9604 6.03776 65.8101 5.93929 65.6274 5.85693C65.4448 5.771 65.255 5.69222 65.0581 5.62061C64.8146 5.53109 64.5729 5.42188 64.333 5.29297C64.0967 5.16406 63.8979 4.99935 63.7368 4.79883C63.5793 4.59831 63.5005 4.34766 63.5005 4.04688C63.5005 3.60286 63.6688 3.23405 64.0054 2.94043C64.3455 2.64323 64.811 2.49463 65.4019 2.49463C65.7528 2.49463 66.0732 2.5555 66.3633 2.67725C66.6569 2.79541 66.9093 2.93864 67.1206 3.10693L66.6265 3.76758C66.4403 3.63151 66.2523 3.5223 66.0625 3.43994C65.8727 3.354 65.6561 3.31104 65.4126 3.31104C65.1047 3.31104 64.8791 3.3737 64.7358 3.49902C64.5926 3.62077 64.521 3.77653 64.521 3.96631C64.521 4.12386 64.5765 4.25635 64.6875 4.36377C64.7985 4.47119 64.9417 4.56608 65.1172 4.64844C65.2926 4.72721 65.4788 4.8042 65.6758 4.87939C65.93 4.97249 66.1789 5.08171 66.4224 5.20703C66.6694 5.32878 66.8735 5.49349 67.0347 5.70117C67.1958 5.90885 67.2764 6.18099 67.2764 6.51758C67.2764 6.96159 67.1027 7.34294 66.7554 7.66162C66.408 7.97673 65.9067 8.13428 65.2515 8.13428ZM68.3774 10.0303L68.1304 9.43408C68.4634 9.29801 68.7212 9.0957 68.9038 8.82715C69.09 8.55859 69.1831 8.27751 69.1831 7.98389C69.158 7.99105 69.1222 7.99463 69.0757 7.99463C68.8823 7.99463 68.7122 7.93555 68.5654 7.81738C68.4222 7.69564 68.3506 7.52197 68.3506 7.29639C68.3506 7.08154 68.424 6.91325 68.5708 6.7915C68.7212 6.66618 68.8966 6.60352 69.0972 6.60352C69.3657 6.60352 69.5734 6.70736 69.7202 6.91504C69.8706 7.12272 69.9458 7.40739 69.9458 7.76904C69.9458 8.27393 69.8062 8.73047 69.5269 9.13867C69.2511 9.54688 68.868 9.84408 68.3774 10.0303ZM74.9731 8.13428C74.4897 8.13428 74.0977 7.99284 73.7969 7.70996C73.4961 7.42708 73.3457 7.04753 73.3457 6.57129C73.3457 5.99121 73.6017 5.53288 74.1138 5.19629C74.6258 4.8597 75.4494 4.66276 76.5845 4.60547C76.5845 4.21517 76.5093 3.91081 76.3589 3.69238C76.2121 3.47396 75.9346 3.36475 75.5264 3.36475C75.2327 3.36475 74.9499 3.4113 74.6777 3.50439C74.4092 3.59391 74.1639 3.71029 73.9419 3.85352L73.5337 3.12842C73.8022 2.96012 74.1245 2.81331 74.5005 2.68799C74.88 2.55908 75.2847 2.49463 75.7144 2.49463C76.3875 2.49463 76.8781 2.68978 77.186 3.08008C77.494 3.47038 77.6479 4.02897 77.6479 4.75586V8H76.7725L76.6812 7.38232H76.6543C76.4036 7.59001 76.1512 7.76725 75.897 7.91406C75.6427 8.06087 75.3348 8.13428 74.9731 8.13428ZM75.2847 7.28564C75.5246 7.28564 75.7448 7.22835 75.9453 7.11377C76.1458 6.99919 76.3589 6.83805 76.5845 6.63037V5.26611C76.0187 5.29118 75.5747 5.36279 75.2524 5.48096C74.9338 5.59912 74.7082 5.74772 74.5757 5.92676C74.4468 6.10221 74.3823 6.29378 74.3823 6.50146C74.3823 6.7736 74.4647 6.97233 74.6294 7.09766C74.7977 7.22298 75.0161 7.28564 75.2847 7.28564ZM80.731 8.13428C80.3586 8.13428 79.9969 8.06445 79.646 7.9248C79.2951 7.78158 78.9907 7.60254 78.7329 7.3877L79.2432 6.68945C79.4795 6.87565 79.7176 7.02783 79.9575 7.146C80.1974 7.26058 80.466 7.31787 80.7632 7.31787C81.0998 7.31787 81.3468 7.24805 81.5044 7.1084C81.6619 6.96517 81.7407 6.78792 81.7407 6.57666C81.7407 6.40837 81.6799 6.26693 81.5581 6.15234C81.4399 6.03776 81.2896 5.93929 81.1069 5.85693C80.9243 5.771 80.7345 5.69222 80.5376 5.62061C80.2941 5.53109 80.0524 5.42188 79.8125 5.29297C79.5762 5.16406 79.3774 4.99935 79.2163 4.79883C79.0588 4.59831 78.98 4.34766 78.98 4.04688C78.98 3.60286 79.1483 3.23405 79.4849 2.94043C79.825 2.64323 80.2905 2.49463 80.8813 2.49463C81.2323 2.49463 81.5527 2.5555 81.8428 2.67725C82.1364 2.79541 82.3888 2.93864 82.6001 3.10693L82.106 3.76758C81.9198 3.63151 81.7318 3.5223 81.542 3.43994C81.3522 3.354 81.1356 3.31104 80.8921 3.31104C80.5841 3.31104 80.3586 3.3737 80.2153 3.49902C80.0721 3.62077 80.0005 3.77653 80.0005 3.96631C80.0005 4.12386 80.056 4.25635 80.167 4.36377C80.278 4.47119 80.4212 4.56608 80.5967 4.64844C80.7721 4.72721 80.9583 4.8042 81.1553 4.87939C81.4095 4.97249 81.6584 5.08171 81.9019 5.20703C82.1489 5.32878 82.353 5.49349 82.5142 5.70117C82.6753 5.90885 82.7559 6.18099 82.7559 6.51758C82.7559 6.96159 82.5822 7.34294 82.2349 7.66162C81.8875 7.97673 81.3862 8.13428 80.731 8.13428ZM85.4038 8.13428C85.0314 8.13428 84.6698 8.06445 84.3188 7.9248C83.9679 7.78158 83.6636 7.60254 83.4058 7.3877L83.916 6.68945C84.1523 6.87565 84.3905 7.02783 84.6304 7.146C84.8703 7.26058 85.1388 7.31787 85.436 7.31787C85.7726 7.31787 86.0197 7.24805 86.1772 7.1084C86.3348 6.96517 86.4136 6.78792 86.4136 6.57666C86.4136 6.40837 86.3527 6.26693 86.231 6.15234C86.1128 6.03776 85.9624 5.93929 85.7798 5.85693C85.5972 5.771 85.4074 5.69222 85.2104 5.62061C84.967 5.53109 84.7253 5.42188 84.4854 5.29297C84.249 5.16406 84.0503 4.99935 83.8892 4.79883C83.7316 4.59831 83.6528 4.34766 83.6528 4.04688C83.6528 3.60286 83.8211 3.23405 84.1577 2.94043C84.4979 2.64323 84.9634 2.49463 85.5542 2.49463C85.9051 2.49463 86.2256 2.5555 86.5156 2.67725C86.8092 2.79541 87.0617 2.93864 87.2729 3.10693L86.7788 3.76758C86.5926 3.63151 86.4046 3.5223 86.2148 3.43994C86.0251 3.354 85.8084 3.31104 85.5649 3.31104C85.257 3.31104 85.0314 3.3737 84.8882 3.49902C84.745 3.62077 84.6733 3.77653 84.6733 3.96631C84.6733 4.12386 84.7288 4.25635 84.8398 4.36377C84.9508 4.47119 85.0941 4.56608 85.2695 4.64844C85.445 4.72721 85.6312 4.8042 85.8281 4.87939C86.0824 4.97249 86.3312 5.08171 86.5747 5.20703C86.8218 5.32878 87.0259 5.49349 87.187 5.70117C87.3481 5.90885 87.4287 6.18099 87.4287 6.51758C87.4287 6.96159 87.255 7.34294 86.9077 7.66162C86.5604 7.97673 86.0591 8.13428 85.4038 8.13428ZM90.2109 8.13428C89.6237 8.13428 89.2012 7.95524 88.9434 7.59717C88.6891 7.23551 88.562 6.71273 88.562 6.02881V2.62891H89.6309V5.88916C89.6309 6.3654 89.7007 6.70557 89.8403 6.90967C89.98 7.11377 90.2217 7.21582 90.5654 7.21582C90.8376 7.21582 91.0685 7.14958 91.2583 7.01709C91.4481 6.8846 91.6593 6.67155 91.8921 6.37793V2.62891H92.9609V8H92.0801L91.9995 7.18359H91.9619C91.7184 7.47005 91.4624 7.70101 91.1938 7.87646C90.9253 8.04834 90.5977 8.13428 90.2109 8.13428ZM94.6797 8V2.62891H95.5552L95.6411 3.38086H95.6841C95.9132 3.13737 96.1657 2.92969 96.4414 2.75781C96.7171 2.58236 97.0179 2.49463 97.3438 2.49463C97.7627 2.49463 98.085 2.57878 98.3105 2.74707C98.5361 2.91178 98.7044 3.15527 98.8154 3.47754C99.0876 3.1875 99.3633 2.95117 99.6426 2.76855C99.9255 2.58594 100.233 2.49463 100.566 2.49463C101.143 2.49463 101.56 2.67367 101.818 3.03174C102.079 3.38981 102.21 3.91081 102.21 4.59473V8H101.152V4.73438C101.152 4.25814 101.08 3.91976 100.937 3.71924C100.794 3.51514 100.559 3.41309 100.233 3.41309C99.8503 3.41309 99.4331 3.66016 98.9819 4.1543V8H97.9131V4.71826C97.9131 4.24202 97.8415 3.90544 97.6982 3.7085C97.5586 3.51156 97.3241 3.41309 96.9946 3.41309C96.6222 3.41309 96.2051 3.66553 95.7432 4.17041V8H94.6797ZM103.875 10.2021V2.62891H104.75L104.836 3.2251H104.879C105.112 3.02816 105.368 2.85807 105.647 2.71484C105.93 2.56803 106.228 2.49463 106.539 2.49463C107.234 2.49463 107.76 2.7417 108.118 3.23584C108.48 3.7264 108.661 4.396 108.661 5.24463C108.661 5.86051 108.553 6.38509 108.338 6.81836C108.124 7.24805 107.841 7.57568 107.49 7.80127C107.139 8.02327 106.759 8.13428 106.351 8.13428C106.1 8.13428 105.855 8.08057 105.615 7.97314C105.379 7.86572 105.144 7.71712 104.912 7.52734L104.938 8.4458V10.2021H103.875ZM106.142 7.24268C106.55 7.24268 106.888 7.07259 107.157 6.73242C107.425 6.38867 107.56 5.89274 107.56 5.24463C107.56 4.66813 107.459 4.21338 107.259 3.88037C107.062 3.54736 106.725 3.38086 106.249 3.38086C106.034 3.38086 105.821 3.43815 105.61 3.55273C105.402 3.66732 105.178 3.8374 104.938 4.06299V6.73242C105.157 6.9222 105.368 7.05469 105.572 7.12988C105.78 7.20508 105.97 7.24268 106.142 7.24268ZM111.808 8.13428C111.214 8.13428 110.797 7.9624 110.557 7.61865C110.32 7.2749 110.202 6.82552 110.202 6.27051V3.48828H109.418V2.68799L110.25 2.62891L110.379 1.14111H111.271V2.62891H112.684V3.48828H111.271V6.28125C111.271 6.60352 111.332 6.85059 111.454 7.02246C111.579 7.19076 111.785 7.2749 112.071 7.2749C112.161 7.2749 112.259 7.26058 112.367 7.23193C112.474 7.20329 112.569 7.17285 112.651 7.14062L112.85 7.93555C112.7 7.9821 112.535 8.02686 112.356 8.06982C112.181 8.11279 111.998 8.13428 111.808 8.13428ZM114.408 1.59229C114.207 1.59229 114.041 1.5332 113.908 1.41504C113.776 1.29688 113.709 1.1429 113.709 0.953125C113.709 0.759766 113.776 0.604004 113.908 0.48584C114.041 0.367676 114.207 0.308594 114.408 0.308594C114.601 0.308594 114.764 0.367676 114.896 0.48584C115.033 0.604004 115.101 0.759766 115.101 0.953125C115.101 1.1429 115.033 1.29688 114.896 1.41504C114.764 1.5332 114.601 1.59229 114.408 1.59229ZM113.865 8V2.62891H114.929V8H113.865ZM118.785 8.13428C118.334 8.13428 117.917 8.02507 117.534 7.80664C117.154 7.58822 116.848 7.26953 116.615 6.85059C116.386 6.42806 116.271 5.91602 116.271 5.31445C116.271 4.70573 116.386 4.19189 116.615 3.77295C116.848 3.354 117.154 3.03711 117.534 2.82227C117.917 2.60384 118.334 2.49463 118.785 2.49463C119.233 2.49463 119.648 2.60384 120.031 2.82227C120.414 3.03711 120.722 3.354 120.955 3.77295C121.188 4.19189 121.304 4.70573 121.304 5.31445C121.304 5.91602 121.188 6.42806 120.955 6.85059C120.722 7.26953 120.414 7.58822 120.031 7.80664C119.648 8.02507 119.233 8.13428 118.785 8.13428ZM118.785 7.25342C119.226 7.25342 119.573 7.07796 119.827 6.72705C120.081 6.37256 120.208 5.90169 120.208 5.31445C120.208 4.72363 120.081 4.25277 119.827 3.90186C119.573 3.54736 119.226 3.37012 118.785 3.37012C118.345 3.37012 117.999 3.54736 117.749 3.90186C117.498 4.25277 117.373 4.72363 117.373 5.31445C117.373 5.90169 117.498 6.37256 117.749 6.72705C117.999 7.07796 118.345 7.25342 118.785 7.25342ZM122.642 8V2.62891H123.517L123.603 3.38086H123.646C123.889 3.13737 124.153 2.92969 124.436 2.75781C124.722 2.58236 125.051 2.49463 125.424 2.49463C126.007 2.49463 126.426 2.67367 126.681 3.03174C126.938 3.38981 127.067 3.91081 127.067 4.59473V8H126.004V4.73438C126.004 4.25814 125.932 3.91976 125.789 3.71924C125.649 3.51514 125.41 3.41309 125.069 3.41309C124.812 3.41309 124.581 3.47754 124.376 3.60645C124.176 3.73535 123.952 3.92334 123.705 4.17041V8H122.642ZM130.167 8.13428C129.794 8.13428 129.432 8.06445 129.082 7.9248C128.731 7.78158 128.426 7.60254 128.168 7.3877L128.679 6.68945C128.915 6.87565 129.153 7.02783 129.393 7.146C129.633 7.26058 129.902 7.31787 130.199 7.31787C130.535 7.31787 130.782 7.24805 130.94 7.1084C131.097 6.96517 131.176 6.78792 131.176 6.57666C131.176 6.40837 131.115 6.26693 130.994 6.15234C130.875 6.03776 130.725 5.93929 130.542 5.85693C130.36 5.771 130.17 5.69222 129.973 5.62061C129.73 5.53109 129.488 5.42188 129.248 5.29297C129.012 5.16406 128.813 4.99935 128.652 4.79883C128.494 4.59831 128.416 4.34766 128.416 4.04688C128.416 3.60286 128.584 3.23405 128.92 2.94043C129.261 2.64323 129.726 2.49463 130.317 2.49463C130.668 2.49463 130.988 2.5555 131.278 2.67725C131.572 2.79541 131.824 2.93864 132.036 3.10693L131.542 3.76758C131.355 3.63151 131.167 3.5223 130.978 3.43994C130.788 3.354 130.571 3.31104 130.328 3.31104C130.02 3.31104 129.794 3.3737 129.651 3.49902C129.508 3.62077 129.436 3.77653 129.436 3.96631C129.436 4.12386 129.492 4.25635 129.603 4.36377C129.714 4.47119 129.857 4.56608 130.032 4.64844C130.208 4.72721 130.394 4.8042 130.591 4.87939C130.845 4.97249 131.094 5.08171 131.337 5.20703C131.584 5.32878 131.789 5.49349 131.95 5.70117C132.111 5.90885 132.191 6.18099 132.191 6.51758C132.191 6.96159 132.018 7.34294 131.67 7.66162C131.323 7.97673 130.822 8.13428 130.167 8.13428ZM137.02 8.13428C136.537 8.13428 136.145 7.99284 135.844 7.70996C135.543 7.42708 135.393 7.04753 135.393 6.57129C135.393 5.99121 135.649 5.53288 136.161 5.19629C136.673 4.8597 137.496 4.66276 138.631 4.60547C138.631 4.21517 138.556 3.91081 138.406 3.69238C138.259 3.47396 137.981 3.36475 137.573 3.36475C137.28 3.36475 136.997 3.4113 136.725 3.50439C136.456 3.59391 136.211 3.71029 135.989 3.85352L135.581 3.12842C135.849 2.96012 136.171 2.81331 136.547 2.68799C136.927 2.55908 137.332 2.49463 137.761 2.49463C138.434 2.49463 138.925 2.68978 139.233 3.08008C139.541 3.47038 139.695 4.02897 139.695 4.75586V8H138.819L138.728 7.38232H138.701C138.451 7.59001 138.198 7.76725 137.944 7.91406C137.69 8.06087 137.382 8.13428 137.02 8.13428ZM137.332 7.28564C137.571 7.28564 137.792 7.22835 137.992 7.11377C138.193 6.99919 138.406 6.83805 138.631 6.63037V5.26611C138.066 5.29118 137.622 5.36279 137.299 5.48096C136.981 5.59912 136.755 5.74772 136.623 5.92676C136.494 6.10221 136.429 6.29378 136.429 6.50146C136.429 6.7736 136.512 6.97233 136.676 7.09766C136.845 7.22298 137.063 7.28564 137.332 7.28564ZM141.333 8V2.62891H142.208L142.294 3.38086H142.337C142.581 3.13737 142.844 2.92969 143.127 2.75781C143.413 2.58236 143.743 2.49463 144.115 2.49463C144.699 2.49463 145.118 2.67367 145.372 3.03174C145.63 3.38981 145.759 3.91081 145.759 4.59473V8H144.695V4.73438C144.695 4.25814 144.624 3.91976 144.48 3.71924C144.341 3.51514 144.101 3.41309 143.761 3.41309C143.503 3.41309 143.272 3.47754 143.068 3.60645C142.867 3.73535 142.644 3.92334 142.396 4.17041V8H141.333ZM149.266 8.13428C148.6 8.13428 148.065 7.89437 147.66 7.41455C147.256 6.93115 147.053 6.23112 147.053 5.31445C147.053 4.71647 147.159 4.20801 147.37 3.78906C147.581 3.37012 147.862 3.04964 148.213 2.82764C148.564 2.60563 148.946 2.49463 149.357 2.49463C149.665 2.49463 149.93 2.55013 150.152 2.66113C150.374 2.76855 150.598 2.91536 150.824 3.10156L150.775 2.20459V0.19043H151.844V8H150.963L150.883 7.3877H150.851C150.643 7.5918 150.403 7.76725 150.131 7.91406C149.859 8.06087 149.57 8.13428 149.266 8.13428ZM149.513 7.24268C149.961 7.24268 150.382 7.0153 150.775 6.56055V3.89648C150.568 3.70671 150.364 3.57422 150.163 3.49902C149.966 3.42025 149.766 3.38086 149.562 3.38086C149.157 3.38086 148.819 3.54915 148.546 3.88574C148.278 4.22233 148.144 4.6932 148.144 5.29834C148.144 5.93213 148.26 6.41553 148.493 6.74854C148.725 7.07796 149.066 7.24268 149.513 7.24268ZM20.8594 19V11.1904H21.9229V13.2744L21.8799 14.3486C22.1198 14.1195 22.3794 13.9207 22.6587 13.7524C22.9416 13.5806 23.2692 13.4946 23.6416 13.4946C24.2181 13.4946 24.6353 13.6755 24.8931 14.0371C25.1545 14.3952 25.2852 14.9162 25.2852 15.6001V19H24.2217V15.7397C24.2217 15.2635 24.1483 14.9233 24.0015 14.7192C23.8582 14.5151 23.6201 14.4131 23.2871 14.4131C23.0293 14.4131 22.7983 14.4775 22.5942 14.6064C22.3937 14.7354 22.1699 14.9233 21.9229 15.1704V19H20.8594ZM27.1167 21.2612C26.9806 21.2612 26.8589 21.2505 26.7515 21.229C26.644 21.2111 26.5456 21.186 26.4561 21.1538L26.6548 20.3159C26.7085 20.3338 26.7712 20.3517 26.8428 20.3696C26.918 20.3875 26.9878 20.3965 27.0522 20.3965C27.3459 20.3965 27.5858 20.298 27.772 20.1011C27.9582 19.9041 28.1014 19.6517 28.2017 19.3438L28.3145 18.9731L26.1821 13.6289H27.2725L28.2876 16.4487C28.37 16.6851 28.4541 16.9339 28.54 17.1953C28.626 17.4567 28.7101 17.7127 28.7925 17.9634H28.8354C28.9071 17.7199 28.9769 17.4674 29.0449 17.2061C29.1165 16.9447 29.1882 16.6922 29.2598 16.4487L30.1406 13.6289H31.188L29.2007 19.3545C29.0646 19.7305 28.9053 20.0617 28.7227 20.3481C28.5436 20.6346 28.3234 20.8584 28.062 21.0195C27.8042 21.1807 27.4891 21.2612 27.1167 21.2612ZM32.1816 21.2021V13.6289H33.0571L33.1431 14.2251H33.186C33.4188 14.0282 33.6748 13.8581 33.9541 13.7148C34.237 13.568 34.5342 13.4946 34.8457 13.4946C35.5404 13.4946 36.0667 13.7417 36.4248 14.2358C36.7865 14.7264 36.9673 15.396 36.9673 16.2446C36.9673 16.8605 36.8599 17.3851 36.645 17.8184C36.4302 18.248 36.1473 18.5757 35.7964 18.8013C35.4455 19.0233 35.0659 19.1343 34.6577 19.1343C34.4071 19.1343 34.1618 19.0806 33.9219 18.9731C33.6855 18.8657 33.451 18.7171 33.2183 18.5273L33.2451 19.4458V21.2021H32.1816ZM34.4482 18.2427C34.8564 18.2427 35.1948 18.0726 35.4634 17.7324C35.7319 17.3887 35.8662 16.8927 35.8662 16.2446C35.8662 15.6681 35.766 15.2134 35.5654 14.8804C35.3685 14.5474 35.0319 14.3809 34.5557 14.3809C34.3408 14.3809 34.1278 14.4382 33.9165 14.5527C33.7088 14.6673 33.485 14.8374 33.2451 15.063V17.7324C33.4635 17.9222 33.6748 18.0547 33.8789 18.1299C34.0866 18.2051 34.2764 18.2427 34.4482 18.2427ZM40.4746 19.1343C40.0234 19.1343 39.6063 19.0251 39.2231 18.8066C38.8436 18.5882 38.5374 18.2695 38.3047 17.8506C38.0755 17.4281 37.9609 16.916 37.9609 16.3145C37.9609 15.7057 38.0755 15.1919 38.3047 14.7729C38.5374 14.354 38.8436 14.0371 39.2231 13.8223C39.6063 13.6038 40.0234 13.4946 40.4746 13.4946C40.9222 13.4946 41.3376 13.6038 41.7207 13.8223C42.1038 14.0371 42.4118 14.354 42.6445 14.7729C42.8773 15.1919 42.9937 15.7057 42.9937 16.3145C42.9937 16.916 42.8773 17.4281 42.6445 17.8506C42.4118 18.2695 42.1038 18.5882 41.7207 18.8066C41.3376 19.0251 40.9222 19.1343 40.4746 19.1343ZM40.4746 18.2534C40.915 18.2534 41.2624 18.078 41.5166 17.7271C41.7708 17.3726 41.8979 16.9017 41.8979 16.3145C41.8979 15.7236 41.7708 15.2528 41.5166 14.9019C41.2624 14.5474 40.915 14.3701 40.4746 14.3701C40.0342 14.3701 39.6886 14.5474 39.438 14.9019C39.1873 15.2528 39.062 15.7236 39.062 16.3145C39.062 16.9017 39.1873 17.3726 39.438 17.7271C39.6886 18.078 40.0342 18.2534 40.4746 18.2534ZM46.1089 19.1343C45.5145 19.1343 45.0973 18.9624 44.8574 18.6187C44.6211 18.2749 44.5029 17.8255 44.5029 17.2705V14.4883H43.7188V13.688L44.5513 13.6289L44.6802 12.1411H45.5718V13.6289H46.9844V14.4883H45.5718V17.2812C45.5718 17.6035 45.6326 17.8506 45.7544 18.0225C45.8797 18.1908 46.0856 18.2749 46.3721 18.2749C46.4616 18.2749 46.5601 18.2606 46.6675 18.2319C46.7749 18.2033 46.8698 18.1729 46.9521 18.1406L47.1509 18.9355C47.0005 18.9821 46.8358 19.0269 46.6567 19.0698C46.4813 19.1128 46.2987 19.1343 46.1089 19.1343ZM48.166 19V11.1904H49.2295V13.2744L49.1865 14.3486C49.4264 14.1195 49.686 13.9207 49.9653 13.7524C50.2482 13.5806 50.5758 13.4946 50.9482 13.4946C51.5247 13.4946 51.9419 13.6755 52.1997 14.0371C52.4611 14.3952 52.5918 14.9162 52.5918 15.6001V19H51.5283V15.7397C51.5283 15.2635 51.4549 14.9233 51.3081 14.7192C51.1649 14.5151 50.9268 14.4131 50.5938 14.4131C50.3359 14.4131 50.105 14.4775 49.9009 14.6064C49.7004 14.7354 49.4766 14.9233 49.2295 15.1704V19H48.166ZM56.4429 19.1343C55.9559 19.1343 55.5155 19.0251 55.1216 18.8066C54.7277 18.5846 54.4144 18.2642 54.1816 17.8452C53.9489 17.4263 53.8325 16.9178 53.8325 16.3198C53.8325 15.7183 53.9453 15.208 54.1709 14.7891C54.3965 14.3665 54.6937 14.0461 55.0625 13.8276C55.4349 13.6056 55.8359 13.4946 56.2656 13.4946C56.9997 13.4946 57.5475 13.7238 57.9092 14.1821C58.2708 14.6369 58.4517 15.2528 58.4517 16.0298C58.4517 16.1336 58.4481 16.2339 58.4409 16.3306C58.4338 16.4237 58.4248 16.5024 58.4141 16.5669H54.8799C54.9121 17.1183 55.0822 17.5444 55.3901 17.8452C55.7017 18.1424 56.0973 18.291 56.5771 18.291C57.0462 18.291 57.4777 18.1675 57.8716 17.9204L58.2368 18.5972C57.9933 18.7547 57.7212 18.8836 57.4204 18.9839C57.1232 19.0841 56.7974 19.1343 56.4429 19.1343ZM54.8691 15.8794H57.5278C57.5278 14.8446 57.116 14.3271 56.2925 14.3271C55.9308 14.3271 55.6157 14.4578 55.3472 14.7192C55.0786 14.9806 54.9193 15.3674 54.8691 15.8794ZM61.1694 19.1343C60.797 19.1343 60.4354 19.0645 60.0845 18.9248C59.7336 18.7816 59.4292 18.6025 59.1714 18.3877L59.6816 17.6895C59.918 17.8757 60.1561 18.0278 60.396 18.146C60.6359 18.2606 60.9045 18.3179 61.2017 18.3179C61.5382 18.3179 61.7853 18.248 61.9429 18.1084C62.1004 17.9652 62.1792 17.7879 62.1792 17.5767C62.1792 17.4084 62.1183 17.2669 61.9966 17.1523C61.8784 17.0378 61.728 16.9393 61.5454 16.8569C61.3628 16.771 61.173 16.6922 60.9761 16.6206C60.7326 16.5311 60.4909 16.4219 60.251 16.293C60.0146 16.1641 59.8159 15.9993 59.6548 15.7988C59.4972 15.5983 59.4185 15.3477 59.4185 15.0469C59.4185 14.6029 59.5868 14.234 59.9233 13.9404C60.2635 13.6432 60.729 13.4946 61.3198 13.4946C61.6707 13.4946 61.9912 13.5555 62.2812 13.6772C62.5749 13.7954 62.8273 13.9386 63.0386 14.1069L62.5444 14.7676C62.3582 14.6315 62.1702 14.5223 61.9805 14.4399C61.7907 14.354 61.5741 14.311 61.3306 14.311C61.0226 14.311 60.797 14.3737 60.6538 14.499C60.5106 14.6208 60.439 14.7765 60.439 14.9663C60.439 15.1239 60.4945 15.2563 60.6055 15.3638C60.7165 15.4712 60.8597 15.5661 61.0352 15.6484C61.2106 15.7272 61.3968 15.8042 61.5938 15.8794C61.848 15.9725 62.0968 16.0817 62.3403 16.207C62.5874 16.3288 62.7915 16.4935 62.9526 16.7012C63.1138 16.9089 63.1943 17.181 63.1943 17.5176C63.1943 17.9616 63.0207 18.3429 62.6733 18.6616C62.326 18.9767 61.8247 19.1343 61.1694 19.1343ZM66.6265 19.1343C66.1395 19.1343 65.6991 19.0251 65.3052 18.8066C64.9113 18.5846 64.598 18.2642 64.3652 17.8452C64.1325 17.4263 64.0161 16.9178 64.0161 16.3198C64.0161 15.7183 64.1289 15.208 64.3545 14.7891C64.5801 14.3665 64.8773 14.0461 65.2461 13.8276C65.6185 13.6056 66.0195 13.4946 66.4492 13.4946C67.1833 13.4946 67.7311 13.7238 68.0928 14.1821C68.4544 14.6369 68.6353 15.2528 68.6353 16.0298C68.6353 16.1336 68.6317 16.2339 68.6245 16.3306C68.6174 16.4237 68.6084 16.5024 68.5977 16.5669H65.0635C65.0957 17.1183 65.2658 17.5444 65.5737 17.8452C65.8853 18.1424 66.2809 18.291 66.7607 18.291C67.2298 18.291 67.6613 18.1675 68.0552 17.9204L68.4204 18.5972C68.1769 18.7547 67.9048 18.8836 67.604 18.9839C67.3068 19.0841 66.981 19.1343 66.6265 19.1343ZM65.0527 15.8794H67.7114C67.7114 14.8446 67.2996 14.3271 66.4761 14.3271C66.1144 14.3271 65.7993 14.4578 65.5308 14.7192C65.2622 14.9806 65.1029 15.3674 65.0527 15.8794ZM71.353 19.1343C70.9806 19.1343 70.619 19.0645 70.2681 18.9248C69.9172 18.7816 69.6128 18.6025 69.355 18.3877L69.8652 17.6895C70.1016 17.8757 70.3397 18.0278 70.5796 18.146C70.8195 18.2606 71.0881 18.3179 71.3853 18.3179C71.7218 18.3179 71.9689 18.248 72.1265 18.1084C72.284 17.9652 72.3628 17.7879 72.3628 17.5767C72.3628 17.4084 72.3019 17.2669 72.1802 17.1523C72.062 17.0378 71.9116 16.9393 71.729 16.8569C71.5464 16.771 71.3566 16.6922 71.1597 16.6206C70.9162 16.5311 70.6745 16.4219 70.4346 16.293C70.1982 16.1641 69.9995 15.9993 69.8384 15.7988C69.6808 15.5983 69.6021 15.3477 69.6021 15.0469C69.6021 14.6029 69.7703 14.234 70.1069 13.9404C70.4471 13.6432 70.9126 13.4946 71.5034 13.4946C71.8543 13.4946 72.1748 13.5555 72.4648 13.6772C72.7585 13.7954 73.0109 13.9386 73.2222 14.1069L72.728 14.7676C72.5418 14.6315 72.3538 14.5223 72.1641 14.4399C71.9743 14.354 71.7576 14.311 71.5142 14.311C71.2062 14.311 70.9806 14.3737 70.8374 14.499C70.6942 14.6208 70.6226 14.7765 70.6226 14.9663C70.6226 15.1239 70.6781 15.2563 70.7891 15.3638C70.9001 15.4712 71.0433 15.5661 71.2188 15.6484C71.3942 15.7272 71.5804 15.8042 71.7773 15.8794C72.0316 15.9725 72.2804 16.0817 72.5239 16.207C72.771 16.3288 72.9751 16.4935 73.1362 16.7012C73.2974 16.9089 73.3779 17.181 73.3779 17.5176C73.3779 17.9616 73.2043 18.3429 72.8569 18.6616C72.5096 18.9767 72.0083 19.1343 71.353 19.1343Z" fill="#012063"/>
<circle cx="4" cy="4" r="4" fill="#B1D7F1"/>
<path d="M20.9883 58V50.7705H22.7876C23.9012 50.7705 24.7319 51.082 25.2798 51.7051C25.8276 52.3281 26.1016 53.2108 26.1016 54.353C26.1016 55.4989 25.8241 56.394 25.269 57.0386C24.714 57.6795 23.8851 58 22.7822 58H20.9883ZM21.7402 57.3823H22.6963C23.5986 57.3823 24.2629 57.112 24.689 56.5713C25.1151 56.0306 25.3281 55.2912 25.3281 54.353C25.3281 53.4149 25.1187 52.6862 24.6997 52.167C24.2843 51.6478 23.6273 51.3882 22.7285 51.3882H21.7402V57.3823ZM29.7163 58.1343C29.2508 58.1343 28.8265 58.0251 28.4434 57.8066C28.0638 57.5882 27.7612 57.2713 27.5356 56.856C27.3101 56.4406 27.1973 55.9375 27.1973 55.3467C27.1973 54.7559 27.3065 54.2528 27.5249 53.8374C27.7433 53.4185 28.0316 53.098 28.3896 52.876C28.7477 52.654 29.1362 52.543 29.5552 52.543C30.2427 52.543 30.7637 52.7614 31.1182 53.1982C31.4727 53.6315 31.6499 54.242 31.6499 55.0298C31.6499 55.1121 31.6481 55.1927 31.6445 55.2715C31.641 55.3467 31.6338 55.4183 31.623 55.4863H27.9331C27.9582 56.113 28.139 56.6107 28.4756 56.9795C28.8122 57.3483 29.2544 57.5327 29.8022 57.5327C30.0672 57.5327 30.3107 57.4987 30.5327 57.4307C30.7547 57.359 30.9642 57.257 31.1611 57.1245L31.4297 57.624C31.2113 57.7601 30.9642 57.88 30.6885 57.9839C30.4128 58.0841 30.0887 58.1343 29.7163 58.1343ZM27.9277 54.9814H30.9946C30.9946 54.3656 30.8711 53.9054 30.624 53.6011C30.3805 53.2931 30.0314 53.1392 29.5767 53.1392C29.1541 53.1392 28.7853 53.3003 28.4702 53.6226C28.1587 53.9448 27.9779 54.3978 27.9277 54.9814ZM34.3677 58.1343C33.9881 58.1343 33.63 58.0627 33.2935 57.9194C32.9569 57.7762 32.665 57.6025 32.418 57.3984L32.7993 56.8936C33.0285 57.0798 33.2666 57.2355 33.5137 57.3608C33.7607 57.4862 34.0562 57.5488 34.3999 57.5488C34.7795 57.5488 35.0641 57.4593 35.2539 57.2803C35.4437 57.1012 35.5386 56.8864 35.5386 56.6357C35.5386 56.4352 35.4759 56.2687 35.3506 56.1362C35.2253 56.0037 35.0659 55.8927 34.8726 55.8032C34.6828 55.7101 34.4876 55.6278 34.2871 55.5562C34.0293 55.4631 33.7751 55.3556 33.5244 55.2339C33.2773 55.1086 33.0715 54.9492 32.9067 54.7559C32.742 54.5625 32.6597 54.3154 32.6597 54.0146C32.6597 53.6029 32.8154 53.2555 33.127 52.9727C33.4385 52.6898 33.8771 52.5483 34.4429 52.5483C34.7544 52.5483 35.048 52.6021 35.3237 52.7095C35.603 52.8169 35.8429 52.953 36.0435 53.1177L35.6782 53.5957C35.4992 53.4596 35.3112 53.3486 35.1143 53.2627C34.9173 53.1768 34.6935 53.1338 34.4429 53.1338C34.0776 53.1338 33.8073 53.2161 33.6318 53.3809C33.46 53.542 33.374 53.7336 33.374 53.9556C33.374 54.131 33.4313 54.2796 33.5459 54.4014C33.6641 54.5231 33.8145 54.6287 33.9971 54.7183C34.1833 54.8042 34.3784 54.8866 34.5825 54.9653C34.8475 55.062 35.1089 55.1712 35.3667 55.293C35.6245 55.4147 35.8376 55.5776 36.0059 55.7817C36.1742 55.9823 36.2583 56.2544 36.2583 56.5981C36.2583 57.0135 36.0954 57.3734 35.7695 57.6777C35.4437 57.9821 34.9764 58.1343 34.3677 58.1343ZM37.9448 51.5063C37.7909 51.5063 37.6602 51.4598 37.5527 51.3667C37.4453 51.27 37.3916 51.1447 37.3916 50.9907C37.3916 50.8296 37.4453 50.7025 37.5527 50.6094C37.6602 50.5127 37.7909 50.4644 37.9448 50.4644C38.0952 50.4644 38.2241 50.5127 38.3315 50.6094C38.439 50.7025 38.4927 50.8296 38.4927 50.9907C38.4927 51.1447 38.439 51.27 38.3315 51.3667C38.2241 51.4598 38.0952 51.5063 37.9448 51.5063ZM37.5635 58V52.6826H38.2993V58H37.5635ZM41.9624 60.4976C41.2391 60.4976 40.693 60.3687 40.3242 60.1108C39.959 59.8566 39.7764 59.5021 39.7764 59.0474C39.7764 58.811 39.8462 58.5783 39.9858 58.3491C40.1255 58.1235 40.3171 57.9284 40.5605 57.7637V57.7207C40.4281 57.6383 40.3171 57.5273 40.2275 57.3877C40.138 57.2445 40.0933 57.069 40.0933 56.8613C40.0933 56.6322 40.1559 56.4406 40.2812 56.2866C40.4102 56.1326 40.5391 56.0109 40.668 55.9214V55.8784C40.4961 55.7352 40.3385 55.5418 40.1953 55.2983C40.0557 55.0549 39.9858 54.7666 39.9858 54.4336C39.9858 54.0218 40.0718 53.6763 40.2437 53.397C40.4191 53.1177 40.6536 52.9064 40.9473 52.7632C41.2445 52.62 41.5757 52.5483 41.9409 52.5483C42.1021 52.5483 42.2399 52.5609 42.3545 52.5859C42.4727 52.611 42.5783 52.6432 42.6714 52.6826H44.4976V53.2573H43.3481C43.495 53.3719 43.6149 53.5259 43.708 53.7192C43.8047 53.9126 43.853 54.1579 43.853 54.4551C43.853 55.0316 43.6704 55.4863 43.3052 55.8193C42.9435 56.1488 42.4888 56.3135 41.9409 56.3135C41.6366 56.3135 41.3573 56.2454 41.103 56.1094C41.0028 56.1989 40.915 56.2902 40.8398 56.3833C40.7646 56.4728 40.7271 56.5981 40.7271 56.7593C40.7271 56.9347 40.7951 57.0833 40.9312 57.2051C41.0672 57.3232 41.3232 57.3823 41.6992 57.3823H42.8433C43.4699 57.3823 43.9175 57.4897 44.186 57.7046C44.4546 57.9159 44.5889 58.2399 44.5889 58.6768C44.5889 58.9954 44.485 59.2926 44.2773 59.5684C44.0697 59.8477 43.7689 60.0715 43.375 60.2397C42.9847 60.4116 42.5138 60.4976 41.9624 60.4976ZM41.9409 55.7979C42.2703 55.7979 42.5568 55.6797 42.8003 55.4434C43.0438 55.2035 43.1655 54.8669 43.1655 54.4336C43.1655 53.9753 43.0492 53.6387 42.8164 53.4238C42.5872 53.209 42.2954 53.1016 41.9409 53.1016C41.5828 53.1016 41.2874 53.2126 41.0547 53.4346C40.8219 53.653 40.7056 53.986 40.7056 54.4336C40.7056 54.8633 40.8273 55.1981 41.0708 55.438C41.3143 55.6779 41.6043 55.7979 41.9409 55.7979ZM42.0698 59.9551C42.4422 59.9551 42.7627 59.8978 43.0312 59.7832C43.2998 59.6722 43.5057 59.5254 43.6489 59.3428C43.7957 59.1637 43.8691 58.974 43.8691 58.7734C43.8691 58.2578 43.4896 58 42.7305 58H41.7207C41.6383 58 41.5363 57.9946 41.4146 57.9839C41.2928 57.9696 41.1693 57.9463 41.0439 57.9141C40.8291 58.0609 40.6751 58.2274 40.582 58.4136C40.4889 58.6034 40.4424 58.7842 40.4424 58.9561C40.4424 59.2604 40.5767 59.5021 40.8452 59.6812C41.1138 59.8638 41.522 59.9551 42.0698 59.9551ZM45.6631 58V52.6826H46.2754L46.3398 53.4722H46.3774C46.6353 53.2108 46.9074 52.9924 47.1938 52.8169C47.4803 52.6379 47.8079 52.5483 48.1768 52.5483C48.7461 52.5483 49.1561 52.7184 49.4067 53.0586C49.661 53.3988 49.7881 53.9108 49.7881 54.5947V58H49.0576V54.6968C49.0576 54.1704 48.9753 53.7891 48.8105 53.5527C48.6494 53.3128 48.3683 53.1929 47.9673 53.1929C47.6772 53.1929 47.4159 53.2681 47.1831 53.4185C46.9504 53.5653 46.689 53.7873 46.3989 54.0845V58H45.6631ZM54.2085 51.5063C54.0545 51.5063 53.9238 51.4598 53.8164 51.3667C53.709 51.27 53.6553 51.1447 53.6553 50.9907C53.6553 50.8296 53.709 50.7025 53.8164 50.6094C53.9238 50.5127 54.0545 50.4644 54.2085 50.4644C54.3589 50.4644 54.4878 50.5127 54.5952 50.6094C54.7026 50.7025 54.7563 50.8296 54.7563 50.9907C54.7563 51.1447 54.7026 51.27 54.5952 51.3667C54.4878 51.4598 54.3589 51.5063 54.2085 51.5063ZM53.8271 58V52.6826H54.563V58H53.8271ZM58.0435 58.1343C57.4956 58.1343 57.1178 57.9767 56.9102 57.6616C56.7061 57.3429 56.604 56.9312 56.604 56.4263V53.2896H55.793V52.731L56.6309 52.6826L56.7222 51.168H57.3452V52.6826H58.8223V53.2896H57.3452V56.4531C57.3452 56.7861 57.4043 57.0475 57.5225 57.2373C57.6406 57.4271 57.8644 57.522 58.1938 57.522C58.2905 57.522 58.3962 57.5059 58.5107 57.4736C58.6289 57.4414 58.7327 57.4074 58.8223 57.3716L58.978 57.9355C58.8276 57.9857 58.6701 58.0304 58.5054 58.0698C58.3442 58.1128 58.1903 58.1343 58.0435 58.1343Z" fill="#012063"/>
<circle cx="4" cy="54" r="4" fill="#B1D7F1"/>
<path d="M23.647 108.134C23.0454 108.134 22.5119 107.987 22.0464 107.694C21.5809 107.397 21.2139 106.969 20.9453 106.41C20.6803 105.848 20.5479 105.171 20.5479 104.38C20.5479 103.592 20.6821 102.921 20.9507 102.366C21.2228 101.807 21.5952 101.381 22.0679 101.087C22.5441 100.79 23.0902 100.642 23.7061 100.642C24.1322 100.642 24.5117 100.729 24.8447 100.905C25.1777 101.077 25.4481 101.279 25.6558 101.512L25.2261 101.99C25.0327 101.778 24.8089 101.612 24.5547 101.49C24.304 101.365 24.0229 101.302 23.7114 101.302C22.981 101.302 22.3991 101.573 21.9658 102.113C21.5361 102.65 21.3213 103.399 21.3213 104.358C21.3213 105.325 21.5308 106.086 21.9497 106.641C22.3722 107.193 22.9451 107.468 23.6685 107.468C24.0229 107.468 24.3381 107.398 24.6138 107.259C24.8931 107.119 25.1545 106.913 25.3979 106.641L25.8276 107.103C25.5483 107.429 25.2297 107.683 24.8716 107.866C24.5171 108.045 24.1089 108.134 23.647 108.134ZM27.1328 108V102.683H27.7451L27.8096 103.655H27.8472C28.0262 103.322 28.2446 103.055 28.5024 102.854C28.7638 102.65 29.0467 102.548 29.3511 102.548C29.5695 102.548 29.7539 102.586 29.9043 102.661L29.7593 103.306C29.6698 103.277 29.5892 103.256 29.5176 103.241C29.4495 103.227 29.3618 103.22 29.2544 103.22C29.0252 103.22 28.7835 103.316 28.5293 103.51C28.2786 103.7 28.0584 104.029 27.8687 104.498V108H27.1328ZM32.9175 108.134C32.452 108.134 32.0277 108.025 31.6445 107.807C31.265 107.588 30.9624 107.271 30.7368 106.856C30.5112 106.441 30.3984 105.938 30.3984 105.347C30.3984 104.756 30.5076 104.253 30.7261 103.837C30.9445 103.418 31.2327 103.098 31.5908 102.876C31.9489 102.654 32.3374 102.543 32.7563 102.543C33.4438 102.543 33.9648 102.761 34.3193 103.198C34.6738 103.632 34.8511 104.242 34.8511 105.03C34.8511 105.112 34.8493 105.193 34.8457 105.271C34.8421 105.347 34.835 105.418 34.8242 105.486H31.1343C31.1593 106.113 31.3402 106.611 31.6768 106.979C32.0133 107.348 32.4556 107.533 33.0034 107.533C33.2684 107.533 33.5119 107.499 33.7339 107.431C33.9559 107.359 34.1654 107.257 34.3623 107.125L34.6309 107.624C34.4124 107.76 34.1654 107.88 33.8896 107.984C33.6139 108.084 33.2899 108.134 32.9175 108.134ZM31.1289 104.981H34.1958C34.1958 104.366 34.0723 103.905 33.8252 103.601C33.5817 103.293 33.2326 103.139 32.7778 103.139C32.3553 103.139 31.9865 103.3 31.6714 103.623C31.3599 103.945 31.179 104.398 31.1289 104.981ZM37.5366 108.134C37.0819 108.134 36.7023 108.007 36.3979 107.753C36.0972 107.495 35.9468 107.123 35.9468 106.636C35.9468 106.052 36.2118 105.596 36.7417 105.266C37.2752 104.937 38.1221 104.729 39.2822 104.643C39.2858 104.375 39.2554 104.129 39.1909 103.907C39.1265 103.682 39.0083 103.503 38.8364 103.37C38.6681 103.234 38.4282 103.166 38.1167 103.166C37.7837 103.166 37.474 103.22 37.1875 103.327C36.901 103.435 36.6593 103.558 36.4624 103.698L36.1562 103.177C36.3783 103.03 36.6701 102.889 37.0317 102.752C37.397 102.616 37.7944 102.548 38.2241 102.548C38.8651 102.548 39.3234 102.742 39.5991 103.128C39.8748 103.515 40.0127 104.033 40.0127 104.681V108H39.4058L39.3359 107.345H39.3145C39.0531 107.556 38.7827 107.74 38.5034 107.898C38.2277 108.056 37.9054 108.134 37.5366 108.134ZM37.7192 107.533C37.995 107.533 38.2528 107.466 38.4927 107.334C38.7362 107.201 38.9993 107.01 39.2822 106.759V105.148C38.6305 105.194 38.1149 105.286 37.7354 105.422C37.3558 105.554 37.0837 105.721 36.9189 105.921C36.7578 106.118 36.6772 106.342 36.6772 106.593C36.6772 106.926 36.7757 107.166 36.9727 107.312C37.1732 107.459 37.422 107.533 37.7192 107.533ZM43.3804 108.134C42.8325 108.134 42.4548 107.977 42.2471 107.662C42.043 107.343 41.9409 106.931 41.9409 106.426V103.29H41.1299V102.731L41.9678 102.683L42.0591 101.168H42.6821V102.683H44.1592V103.29H42.6821V106.453C42.6821 106.786 42.7412 107.048 42.8594 107.237C42.9775 107.427 43.2013 107.522 43.5308 107.522C43.6274 107.522 43.7331 107.506 43.8477 107.474C43.9658 107.441 44.0697 107.407 44.1592 107.372L44.3149 107.936C44.1646 107.986 44.007 108.03 43.8423 108.07C43.6812 108.113 43.5272 108.134 43.3804 108.134ZM47.4946 108.134C47.0291 108.134 46.6048 108.025 46.2217 107.807C45.8421 107.588 45.5396 107.271 45.314 106.856C45.0884 106.441 44.9756 105.938 44.9756 105.347C44.9756 104.756 45.0848 104.253 45.3032 103.837C45.5216 103.418 45.8099 103.098 46.168 102.876C46.526 102.654 46.9146 102.543 47.3335 102.543C48.021 102.543 48.542 102.761 48.8965 103.198C49.251 103.632 49.4282 104.242 49.4282 105.03C49.4282 105.112 49.4264 105.193 49.4229 105.271C49.4193 105.347 49.4121 105.418 49.4014 105.486H45.7114C45.7365 106.113 45.9173 106.611 46.2539 106.979C46.5905 107.348 47.0327 107.533 47.5806 107.533C47.8455 107.533 48.089 107.499 48.311 107.431C48.533 107.359 48.7425 107.257 48.9395 107.125L49.208 107.624C48.9896 107.76 48.7425 107.88 48.4668 107.984C48.1911 108.084 47.867 108.134 47.4946 108.134ZM45.7061 104.981H48.7729C48.7729 104.366 48.6494 103.905 48.4023 103.601C48.1589 103.293 47.8097 103.139 47.355 103.139C46.9325 103.139 46.5636 103.3 46.2485 103.623C45.937 103.945 45.7562 104.398 45.7061 104.981ZM54.3267 108.134C53.8719 108.134 53.4924 108.007 53.188 107.753C52.8872 107.495 52.7368 107.123 52.7368 106.636C52.7368 106.052 53.0018 105.596 53.5317 105.266C54.0653 104.937 54.9121 104.729 56.0723 104.643C56.0758 104.375 56.0454 104.129 55.981 103.907C55.9165 103.682 55.7983 103.503 55.6265 103.37C55.4582 103.234 55.2183 103.166 54.9067 103.166C54.5737 103.166 54.264 103.22 53.9775 103.327C53.6911 103.435 53.4494 103.558 53.2524 103.698L52.9463 103.177C53.1683 103.03 53.4601 102.889 53.8218 102.752C54.187 102.616 54.5845 102.548 55.0142 102.548C55.6551 102.548 56.1134 102.742 56.3892 103.128C56.6649 103.515 56.8027 104.033 56.8027 104.681V108H56.1958L56.126 107.345H56.1045C55.8431 107.556 55.5728 107.74 55.2935 107.898C55.0177 108.056 54.6955 108.134 54.3267 108.134ZM54.5093 107.533C54.785 107.533 55.0428 107.466 55.2827 107.334C55.5262 107.201 55.7894 107.01 56.0723 106.759V105.148C55.4206 105.194 54.9049 105.286 54.5254 105.422C54.1458 105.554 53.8737 105.721 53.709 105.921C53.5479 106.118 53.4673 106.342 53.4673 106.593C53.4673 106.926 53.5658 107.166 53.7627 107.312C53.9632 107.459 54.2121 107.533 54.5093 107.533ZM58.5859 108V102.683H59.1982L59.2627 103.472H59.3003C59.5581 103.211 59.8302 102.992 60.1167 102.817C60.4032 102.638 60.7308 102.548 61.0996 102.548C61.6689 102.548 62.0789 102.718 62.3296 103.059C62.5838 103.399 62.7109 103.911 62.7109 104.595V108H61.9805V104.697C61.9805 104.17 61.8981 103.789 61.7334 103.553C61.5723 103.313 61.2912 103.193 60.8901 103.193C60.6001 103.193 60.3387 103.268 60.106 103.418C59.8732 103.565 59.6118 103.787 59.3218 104.084V108H58.5859ZM66.7607 108L66.8252 100.771H67.7275L69.1724 104.799L69.7095 106.33H69.7524L70.2842 104.799L71.7129 100.771H72.6099L72.6797 108H71.9707L71.96 103.703C71.96 103.395 71.9653 103.053 71.9761 102.677C71.9904 102.298 72.0065 101.952 72.0244 101.641H71.9814L71.4121 103.241L69.9619 107.248H69.4678L68.0122 103.241L67.4375 101.641H67.3945C67.4124 101.952 67.4268 102.298 67.4375 102.677C67.4482 103.053 67.4536 103.395 67.4536 103.703V108H66.7607ZM75.9722 108L73.6357 100.771H74.4307L75.666 104.804C75.7985 105.237 75.9167 105.64 76.0205 106.013C76.1279 106.382 76.2515 106.781 76.3911 107.21H76.4341C76.5737 106.781 76.6973 106.382 76.8047 106.013C76.9121 105.64 77.0285 105.237 77.1538 104.804L78.3892 100.771H79.1465L76.8315 108H75.9722ZM80.124 108V100.771H82.2778C83.0978 100.771 83.7352 100.928 84.1899 101.243C84.6447 101.558 84.8721 102.103 84.8721 102.876C84.8721 103.614 84.6429 104.169 84.1846 104.541C83.7298 104.913 83.0978 105.1 82.2886 105.1H80.876V108H80.124ZM80.876 104.482H82.165C82.8597 104.482 83.3592 104.351 83.6636 104.09C83.9715 103.825 84.1255 103.42 84.1255 102.876C84.1255 102.317 83.9679 101.929 83.6528 101.71C83.3377 101.492 82.8382 101.383 82.1543 101.383H80.876V104.482Z" fill="#012063"/>
<circle cx="4" cy="104" r="4" fill="#B1D7F1"/>
<path d="M20.9883 158V150.771H23.2227C23.7061 150.771 24.1286 150.831 24.4902 150.953C24.8519 151.075 25.133 151.281 25.3335 151.571C25.5376 151.857 25.6396 152.248 25.6396 152.742C25.6396 153.34 25.4893 153.8 25.1885 154.122C24.8877 154.444 24.4759 154.657 23.9531 154.761L25.8223 158H24.9629L23.1689 154.836H21.7402V158H20.9883ZM21.7402 154.224H23.0884C23.6864 154.224 24.134 154.108 24.4312 153.875C24.7319 153.642 24.8823 153.264 24.8823 152.742C24.8823 152.222 24.7319 151.866 24.4312 151.673C24.134 151.479 23.6864 151.383 23.0884 151.383H21.7402V154.224ZM29.2866 158.134C28.8211 158.134 28.3968 158.025 28.0137 157.807C27.6341 157.588 27.3315 157.271 27.106 156.856C26.8804 156.441 26.7676 155.938 26.7676 155.347C26.7676 154.756 26.8768 154.253 27.0952 153.837C27.3136 153.418 27.6019 153.098 27.96 152.876C28.318 152.654 28.7065 152.543 29.1255 152.543C29.813 152.543 30.334 152.761 30.6885 153.198C31.043 153.632 31.2202 154.242 31.2202 155.03C31.2202 155.112 31.2184 155.193 31.2148 155.271C31.2113 155.347 31.2041 155.418 31.1934 155.486H27.5034C27.5285 156.113 27.7093 156.611 28.0459 156.979C28.3825 157.348 28.8247 157.533 29.3726 157.533C29.6375 157.533 29.881 157.499 30.103 157.431C30.325 157.359 30.5345 157.257 30.7314 157.125L31 157.624C30.7816 157.76 30.5345 157.88 30.2588 157.984C29.9831 158.084 29.659 158.134 29.2866 158.134ZM27.498 154.981H30.5649C30.5649 154.366 30.4414 153.905 30.1943 153.601C29.9508 153.293 29.6017 153.139 29.147 153.139C28.7244 153.139 28.3556 153.3 28.0405 153.623C27.729 153.945 27.5482 154.398 27.498 154.981ZM33.938 158.134C33.5584 158.134 33.2004 158.063 32.8638 157.919C32.5272 157.776 32.2354 157.603 31.9883 157.398L32.3696 156.894C32.5988 157.08 32.8369 157.236 33.084 157.361C33.3311 157.486 33.6265 157.549 33.9702 157.549C34.3498 157.549 34.6344 157.459 34.8242 157.28C35.014 157.101 35.1089 156.886 35.1089 156.636C35.1089 156.435 35.0462 156.269 34.9209 156.136C34.7956 156.004 34.6362 155.893 34.4429 155.803C34.2531 155.71 34.0579 155.628 33.8574 155.556C33.5996 155.463 33.3454 155.356 33.0947 155.234C32.8477 155.109 32.6418 154.949 32.4771 154.756C32.3123 154.562 32.23 154.315 32.23 154.015C32.23 153.603 32.3857 153.256 32.6973 152.973C33.0088 152.69 33.4474 152.548 34.0132 152.548C34.3247 152.548 34.6183 152.602 34.894 152.709C35.1733 152.817 35.4132 152.953 35.6138 153.118L35.2485 153.596C35.0695 153.46 34.8815 153.349 34.6846 153.263C34.4876 153.177 34.2638 153.134 34.0132 153.134C33.6479 153.134 33.3776 153.216 33.2021 153.381C33.0303 153.542 32.9443 153.734 32.9443 153.956C32.9443 154.131 33.0016 154.28 33.1162 154.401C33.2344 154.523 33.3848 154.629 33.5674 154.718C33.7536 154.804 33.9487 154.887 34.1528 154.965C34.4178 155.062 34.6792 155.171 34.937 155.293C35.1948 155.415 35.4079 155.578 35.5762 155.782C35.7445 155.982 35.8286 156.254 35.8286 156.598C35.8286 157.014 35.6657 157.373 35.3398 157.678C35.014 157.982 34.5467 158.134 33.938 158.134ZM39.2339 158.134C38.7684 158.134 38.3441 158.025 37.9609 157.807C37.5814 157.588 37.2788 157.271 37.0532 156.856C36.8276 156.441 36.7148 155.938 36.7148 155.347C36.7148 154.756 36.8241 154.253 37.0425 153.837C37.2609 153.418 37.5492 153.098 37.9072 152.876C38.2653 152.654 38.6538 152.543 39.0728 152.543C39.7603 152.543 40.2812 152.761 40.6357 153.198C40.9902 153.632 41.1675 154.242 41.1675 155.03C41.1675 155.112 41.1657 155.193 41.1621 155.271C41.1585 155.347 41.1514 155.418 41.1406 155.486H37.4507C37.4757 156.113 37.6566 156.611 37.9932 156.979C38.3298 157.348 38.772 157.533 39.3198 157.533C39.5848 157.533 39.8283 157.499 40.0503 157.431C40.2723 157.359 40.4818 157.257 40.6787 157.125L40.9473 157.624C40.7288 157.76 40.4818 157.88 40.2061 157.984C39.9303 158.084 39.6063 158.134 39.2339 158.134ZM37.4453 154.981H40.5122C40.5122 154.366 40.3887 153.905 40.1416 153.601C39.8981 153.293 39.549 153.139 39.0942 153.139C38.6717 153.139 38.3029 153.3 37.9878 153.623C37.6763 153.945 37.4954 154.398 37.4453 154.981ZM43.853 158.134C43.3983 158.134 43.0187 158.007 42.7144 157.753C42.4136 157.495 42.2632 157.123 42.2632 156.636C42.2632 156.052 42.5282 155.596 43.0581 155.266C43.5916 154.937 44.4385 154.729 45.5986 154.643C45.6022 154.375 45.5718 154.129 45.5073 153.907C45.4429 153.682 45.3247 153.503 45.1528 153.37C44.9845 153.234 44.7446 153.166 44.4331 153.166C44.1001 153.166 43.7904 153.22 43.5039 153.327C43.2174 153.435 42.9757 153.558 42.7788 153.698L42.4727 153.177C42.6947 153.03 42.9865 152.889 43.3481 152.752C43.7134 152.616 44.1108 152.548 44.5405 152.548C45.1815 152.548 45.6398 152.742 45.9155 153.128C46.1912 153.515 46.3291 154.033 46.3291 154.681V158H45.7222L45.6523 157.345H45.6309C45.3695 157.556 45.0991 157.74 44.8198 157.898C44.5441 158.056 44.2218 158.134 43.853 158.134ZM44.0356 157.533C44.3114 157.533 44.5692 157.466 44.8091 157.334C45.0526 157.201 45.3158 157.01 45.5986 156.759V155.148C44.9469 155.194 44.4313 155.286 44.0518 155.422C43.6722 155.554 43.4001 155.721 43.2354 155.921C43.0742 156.118 42.9937 156.342 42.9937 156.593C42.9937 156.926 43.0921 157.166 43.2891 157.312C43.4896 157.459 43.7384 157.533 44.0356 157.533ZM48.1123 158V152.683H48.7246L48.7891 153.655H48.8267C49.0057 153.322 49.2241 153.055 49.4819 152.854C49.7433 152.65 50.0262 152.548 50.3306 152.548C50.549 152.548 50.7334 152.586 50.8838 152.661L50.7388 153.306C50.6493 153.277 50.5687 153.256 50.4971 153.241C50.429 153.227 50.3413 153.22 50.2339 153.22C50.0047 153.22 49.763 153.316 49.5088 153.51C49.2581 153.7 49.0379 154.029 48.8481 154.498V158H48.1123ZM53.8379 158.134C53.3724 158.134 52.9535 158.027 52.5811 157.812C52.2122 157.597 51.9204 157.282 51.7056 156.867C51.4907 156.451 51.3833 155.943 51.3833 155.341C51.3833 154.729 51.4979 154.217 51.7271 153.805C51.9562 153.39 52.2606 153.076 52.6401 152.865C53.0197 152.654 53.4333 152.548 53.8809 152.548C54.2389 152.548 54.5451 152.613 54.7993 152.742C55.0535 152.867 55.2702 153.014 55.4492 153.182L55.0679 153.666C54.9032 153.519 54.7259 153.399 54.5361 153.306C54.3499 153.213 54.1405 153.166 53.9077 153.166C53.5711 153.166 53.2686 153.256 53 153.435C52.735 153.61 52.5256 153.861 52.3716 154.187C52.2176 154.509 52.1406 154.894 52.1406 155.341C52.1406 156 52.3 156.528 52.6187 156.926C52.9409 157.32 53.3652 157.517 53.8916 157.517C54.1566 157.517 54.3965 157.466 54.6113 157.366C54.8298 157.262 55.0213 157.133 55.186 156.979L55.5298 157.468C55.297 157.676 55.0374 157.839 54.751 157.957C54.4681 158.075 54.1637 158.134 53.8379 158.134ZM56.7812 158V150.137H57.5171V152.333L57.4956 153.461C57.757 153.207 58.0291 152.992 58.312 152.817C58.5985 152.638 58.9261 152.548 59.2949 152.548C59.8607 152.548 60.2707 152.72 60.5249 153.064C60.7791 153.404 60.9062 153.916 60.9062 154.6V158H60.1758V154.702C60.1758 154.176 60.0916 153.793 59.9233 153.553C59.7586 153.313 59.4793 153.193 59.0854 153.193C58.7954 153.193 58.534 153.268 58.3013 153.418C58.0685 153.565 57.8071 153.787 57.5171 154.084V158H56.7812ZM66.2183 158.134C65.7635 158.134 65.384 158.007 65.0796 157.753C64.7788 157.495 64.6284 157.123 64.6284 156.636C64.6284 156.052 64.8934 155.596 65.4233 155.266C65.9569 154.937 66.8037 154.729 67.9639 154.643C67.9674 154.375 67.937 154.129 67.8726 153.907C67.8081 153.682 67.6899 153.503 67.5181 153.37C67.3498 153.234 67.1099 153.166 66.7983 153.166C66.4653 153.166 66.1556 153.22 65.8691 153.327C65.5827 153.435 65.341 153.558 65.144 153.698L64.8379 153.177C65.0599 153.03 65.3517 152.889 65.7134 152.752C66.0786 152.616 66.4761 152.548 66.9058 152.548C67.5467 152.548 68.005 152.742 68.2808 153.128C68.5565 153.515 68.6943 154.033 68.6943 154.681V158H68.0874L68.0176 157.345H67.9961C67.7347 157.556 67.4644 157.74 67.1851 157.898C66.9093 158.056 66.5871 158.134 66.2183 158.134ZM66.4009 157.533C66.6766 157.533 66.9344 157.466 67.1743 157.334C67.4178 157.201 67.681 157.01 67.9639 156.759V155.148C67.3122 155.194 66.7965 155.286 66.417 155.422C66.0374 155.554 65.7653 155.721 65.6006 155.921C65.4395 156.118 65.3589 156.342 65.3589 156.593C65.3589 156.926 65.4574 157.166 65.6543 157.312C65.8548 157.459 66.1037 157.533 66.4009 157.533ZM70.4775 158V152.683H71.0898L71.1543 153.472H71.1919C71.4497 153.211 71.7218 152.992 72.0083 152.817C72.2948 152.638 72.6224 152.548 72.9912 152.548C73.5605 152.548 73.9705 152.718 74.2212 153.059C74.4754 153.399 74.6025 153.911 74.6025 154.595V158H73.8721V154.697C73.8721 154.17 73.7897 153.789 73.625 153.553C73.4639 153.313 73.1828 153.193 72.7817 153.193C72.4917 153.193 72.2303 153.268 71.9976 153.418C71.7648 153.565 71.5034 153.787 71.2134 154.084V158H70.4775ZM78.2227 158.134C77.5602 158.134 77.0267 157.898 76.6221 157.425C76.221 156.953 76.0205 156.26 76.0205 155.347C76.0205 154.756 76.1261 154.253 76.3374 153.837C76.5522 153.418 76.8351 153.1 77.186 152.881C77.5405 152.659 77.929 152.548 78.3516 152.548C78.6667 152.548 78.9388 152.604 79.168 152.715C79.4007 152.826 79.6424 152.98 79.8931 153.177L79.8555 152.242V150.137H80.5913V158H79.979L79.9146 157.35H79.8823C79.6711 157.558 79.424 157.74 79.1411 157.898C78.8582 158.056 78.5521 158.134 78.2227 158.134ZM78.3677 157.506C78.6326 157.506 78.8851 157.44 79.125 157.307C79.3685 157.175 79.612 156.978 79.8555 156.716V153.784C79.6084 153.562 79.3721 153.404 79.1465 153.311C78.9209 153.218 78.6917 153.171 78.459 153.171C78.1367 153.171 77.8485 153.263 77.5942 153.445C77.34 153.624 77.1395 153.877 76.9927 154.203C76.8494 154.528 76.7778 154.908 76.7778 155.341C76.7778 156.018 76.9121 156.548 77.1807 156.931C77.4528 157.314 77.8485 157.506 78.3677 157.506ZM84.7432 158V150.771H85.4951V157.361H88.7178V158H84.7432ZM91.7847 158.134C91.3192 158.134 90.8949 158.025 90.5117 157.807C90.1322 157.588 89.8296 157.271 89.604 156.856C89.3784 156.441 89.2656 155.938 89.2656 155.347C89.2656 154.756 89.3748 154.253 89.5933 153.837C89.8117 153.418 90.0999 153.098 90.458 152.876C90.8161 152.654 91.2046 152.543 91.6235 152.543C92.311 152.543 92.832 152.761 93.1865 153.198C93.541 153.632 93.7183 154.242 93.7183 155.03C93.7183 155.112 93.7165 155.193 93.7129 155.271C93.7093 155.347 93.7021 155.418 93.6914 155.486H90.0015C90.0265 156.113 90.2074 156.611 90.5439 156.979C90.8805 157.348 91.3228 157.533 91.8706 157.533C92.1356 157.533 92.3791 157.499 92.6011 157.431C92.8231 157.359 93.0326 157.257 93.2295 157.125L93.498 157.624C93.2796 157.76 93.0326 157.88 92.7568 157.984C92.4811 158.084 92.1571 158.134 91.7847 158.134ZM89.9961 154.981H93.063C93.063 154.366 92.9395 153.905 92.6924 153.601C92.4489 153.293 92.0998 153.139 91.645 153.139C91.2225 153.139 90.8537 153.3 90.5386 153.623C90.2271 153.945 90.0462 154.398 89.9961 154.981ZM96.4038 158.134C95.9491 158.134 95.5695 158.007 95.2651 157.753C94.9644 157.495 94.814 157.123 94.814 156.636C94.814 156.052 95.0789 155.596 95.6089 155.266C96.1424 154.937 96.9893 154.729 98.1494 154.643C98.153 154.375 98.1226 154.129 98.0581 153.907C97.9937 153.682 97.8755 153.503 97.7036 153.37C97.5353 153.234 97.2954 153.166 96.9839 153.166C96.6509 153.166 96.3411 153.22 96.0547 153.327C95.7682 153.435 95.5265 153.558 95.3296 153.698L95.0234 153.177C95.2454 153.03 95.5373 152.889 95.8989 152.752C96.2642 152.616 96.6616 152.548 97.0913 152.548C97.7323 152.548 98.1906 152.742 98.4663 153.128C98.742 153.515 98.8799 154.033 98.8799 154.681V158H98.2729L98.2031 157.345H98.1816C97.9202 157.556 97.6499 157.74 97.3706 157.898C97.0949 158.056 96.7726 158.134 96.4038 158.134ZM96.5864 157.533C96.8621 157.533 97.12 157.466 97.3599 157.334C97.6034 157.201 97.8665 157.01 98.1494 156.759V155.148C97.4977 155.194 96.9821 155.286 96.6025 155.422C96.223 155.554 95.9508 155.721 95.7861 155.921C95.625 156.118 95.5444 156.342 95.5444 156.593C95.5444 156.926 95.6429 157.166 95.8398 157.312C96.0404 157.459 96.2892 157.533 96.5864 157.533ZM100.663 158V152.683H101.275L101.34 153.655H101.377C101.556 153.322 101.775 153.055 102.033 152.854C102.294 152.65 102.577 152.548 102.881 152.548C103.1 152.548 103.284 152.586 103.435 152.661L103.29 153.306C103.2 153.277 103.119 153.256 103.048 153.241C102.98 153.227 102.892 153.22 102.785 153.22C102.556 153.22 102.314 153.316 102.06 153.51C101.809 153.7 101.589 154.029 101.399 154.498V158H100.663ZM104.348 158V152.683H104.96L105.024 153.472H105.062C105.32 153.211 105.592 152.992 105.878 152.817C106.165 152.638 106.493 152.548 106.861 152.548C107.431 152.548 107.841 152.718 108.091 153.059C108.346 153.399 108.473 153.911 108.473 154.595V158H107.742V154.697C107.742 154.17 107.66 153.789 107.495 153.553C107.334 153.313 107.053 153.193 106.652 153.193C106.362 153.193 106.1 153.268 105.868 153.418C105.635 153.565 105.374 153.787 105.083 154.084V158H104.348ZM110.68 151.506C110.526 151.506 110.396 151.46 110.288 151.367C110.181 151.27 110.127 151.145 110.127 150.991C110.127 150.83 110.181 150.702 110.288 150.609C110.396 150.513 110.526 150.464 110.68 150.464C110.831 150.464 110.959 150.513 111.067 150.609C111.174 150.702 111.228 150.83 111.228 150.991C111.228 151.145 111.174 151.27 111.067 151.367C110.959 151.46 110.831 151.506 110.68 151.506ZM110.299 158V152.683H111.035V158H110.299ZM112.931 158V152.683H113.543L113.607 153.472H113.645C113.903 153.211 114.175 152.992 114.461 152.817C114.748 152.638 115.076 152.548 115.444 152.548C116.014 152.548 116.424 152.718 116.674 153.059C116.929 153.399 117.056 153.911 117.056 154.595V158H116.325V154.697C116.325 154.17 116.243 153.789 116.078 153.553C115.917 153.313 115.636 153.193 115.235 153.193C114.945 153.193 114.683 153.268 114.451 153.418C114.218 153.565 113.957 153.787 113.667 154.084V158H112.931ZM120.649 160.498C119.926 160.498 119.38 160.369 119.011 160.111C118.646 159.857 118.463 159.502 118.463 159.047C118.463 158.811 118.533 158.578 118.672 158.349C118.812 158.124 119.004 157.928 119.247 157.764V157.721C119.115 157.638 119.004 157.527 118.914 157.388C118.825 157.244 118.78 157.069 118.78 156.861C118.78 156.632 118.842 156.441 118.968 156.287C119.097 156.133 119.226 156.011 119.354 155.921V155.878C119.183 155.735 119.025 155.542 118.882 155.298C118.742 155.055 118.672 154.767 118.672 154.434C118.672 154.022 118.758 153.676 118.93 153.397C119.106 153.118 119.34 152.906 119.634 152.763C119.931 152.62 120.262 152.548 120.627 152.548C120.789 152.548 120.926 152.561 121.041 152.586C121.159 152.611 121.265 152.643 121.358 152.683H123.184V153.257H122.035C122.181 153.372 122.301 153.526 122.395 153.719C122.491 153.913 122.54 154.158 122.54 154.455C122.54 155.032 122.357 155.486 121.992 155.819C121.63 156.149 121.175 156.313 120.627 156.313C120.323 156.313 120.044 156.245 119.79 156.109C119.689 156.199 119.602 156.29 119.526 156.383C119.451 156.473 119.414 156.598 119.414 156.759C119.414 156.935 119.482 157.083 119.618 157.205C119.754 157.323 120.01 157.382 120.386 157.382H121.53C122.156 157.382 122.604 157.49 122.873 157.705C123.141 157.916 123.275 158.24 123.275 158.677C123.275 158.995 123.172 159.293 122.964 159.568C122.756 159.848 122.455 160.071 122.062 160.24C121.671 160.412 121.2 160.498 120.649 160.498ZM120.627 155.798C120.957 155.798 121.243 155.68 121.487 155.443C121.73 155.203 121.852 154.867 121.852 154.434C121.852 153.975 121.736 153.639 121.503 153.424C121.274 153.209 120.982 153.102 120.627 153.102C120.269 153.102 119.974 153.213 119.741 153.435C119.508 153.653 119.392 153.986 119.392 154.434C119.392 154.863 119.514 155.198 119.757 155.438C120.001 155.678 120.291 155.798 120.627 155.798ZM120.756 159.955C121.129 159.955 121.449 159.898 121.718 159.783C121.986 159.672 122.192 159.525 122.335 159.343C122.482 159.164 122.556 158.974 122.556 158.773C122.556 158.258 122.176 158 121.417 158H120.407C120.325 158 120.223 157.995 120.101 157.984C119.979 157.97 119.856 157.946 119.73 157.914C119.516 158.061 119.362 158.227 119.269 158.414C119.175 158.603 119.129 158.784 119.129 158.956C119.129 159.26 119.263 159.502 119.532 159.681C119.8 159.864 120.208 159.955 120.756 159.955Z" fill="#012063"/>
<circle cx="4" cy="154" r="4" fill="#B1D7F1"/>
</svg>
