<svg width="179" height="90" viewBox="0 0 179 90" fill="none" xmlns="http://www.w3.org/2000/svg">
<path d="M16.3445 59.9708L12.77 58.9336C12.395 58.8281 12.184 58.4355 12.2895 58.0605L20.2882 30.5076C20.3936 30.1326 20.7862 29.9216 21.1613 30.0271L24.7358 31.0643C25.1108 31.1698 25.3217 31.5624 25.2163 31.9374L17.2176 59.4903C17.1063 59.8653 16.7195 60.0821 16.3445 59.9708ZM9.6643 53.3961L12.2133 50.6771C12.4829 50.39 12.4653 49.9329 12.1664 49.6692L6.85745 44.999L12.1664 40.3287C12.4653 40.065 12.4887 39.6079 12.2133 39.3208L9.6643 36.6018C9.40061 36.3206 8.95526 36.303 8.66813 36.5725L0.224138 44.4833C-0.0747126 44.7587 -0.0747126 45.2333 0.224138 45.5088L8.66813 53.4254C8.95526 53.6949 9.40061 53.6832 9.6643 53.3961ZM28.8376 53.4312L37.2816 45.5146C37.5805 45.2392 37.5805 44.7646 37.2816 44.4891L28.8376 36.5667C28.5564 36.303 28.111 36.3147 27.8415 36.596L25.2924 39.3149C25.0229 39.6021 25.0405 40.0591 25.3393 40.3228L30.6483 44.999L25.3393 49.6692C25.0405 49.9329 25.017 50.39 25.2924 50.6771L27.8415 53.3961C28.1051 53.6832 28.5505 53.6949 28.8376 53.4312Z" fill="#E0B2D7"/>
<path d="M89.0717 90C83.618 90 78.7141 88.9648 74.3599 86.8943C70.0497 84.7807 66.6632 81.9339 64.2002 78.3537C61.7372 74.7304 60.5058 70.6758 60.5058 66.1898C60.5058 60.798 62.0671 56.1395 65.1898 52.2142C68.3565 48.289 72.0509 45.2696 76.2731 43.156V42.6384C73.0185 40.3954 70.2257 37.5485 67.8946 34.0978C65.5636 30.647 64.3981 26.7002 64.3981 22.2574C64.3981 15.6147 66.7291 10.2444 71.3912 6.14666C76.0532 2.04889 82.1886 0 89.7974 0C97.3622 0 103.322 2.11359 107.676 6.34076C112.074 10.5248 114.273 15.9382 114.273 22.5809C114.273 25.4709 113.657 28.2746 112.426 30.9921C111.238 33.7096 109.743 36.1682 107.94 38.3681C106.137 40.5248 104.333 42.2502 102.53 43.5442V44.1265C106.444 46.3264 109.919 49.2595 112.954 52.926C115.988 56.5492 117.506 61.1646 117.506 66.7721C117.506 71.0424 116.362 74.9461 114.075 78.4831C111.832 81.977 108.6 84.7807 104.377 86.8943C100.155 88.9648 95.0532 90 89.0717 90ZM95.0092 40.2444C97.6041 37.8289 99.6053 35.133 101.013 32.1567C102.464 29.1804 103.19 26.2257 103.19 23.2926C103.19 19.3242 102.002 16.0029 99.6273 13.3285C97.2523 10.6111 93.8877 9.25234 89.5335 9.25234C85.3993 9.25234 82.1446 10.4385 79.7696 12.8109C77.4386 15.1833 76.2731 18.3321 76.2731 22.2574C76.2731 25.363 77.1308 28.0374 78.846 30.2804C80.5613 32.4802 82.8264 34.3781 85.6412 35.9741C88.5 37.5701 91.6227 38.9935 95.0092 40.2444ZM89.4016 80.683C94.4155 80.683 98.2639 79.3458 100.947 76.6715C103.674 73.954 105.037 70.5248 105.037 66.3839C105.037 63.0194 104.025 60.1941 102.002 57.908C99.9791 55.5787 97.2743 53.573 93.8877 51.8907C90.5011 50.1653 86.8067 48.4831 82.8044 46.844C79.6817 49.0007 77.1088 51.6966 75.0856 54.9317C73.0625 58.1237 72.0509 61.4881 72.0509 65.0252C72.0509 69.5111 73.7222 73.2423 77.0648 76.2186C80.4074 79.1948 84.5196 80.683 89.4016 80.683Z" fill="#012063"/>
<path d="M156.85 59.9708L153.276 58.9336C152.901 58.8281 152.69 58.4355 152.795 58.0605L160.794 30.5076C160.899 30.1326 161.292 29.9216 161.667 30.0271L165.242 31.0643C165.617 31.1698 165.827 31.5624 165.722 31.9374L157.723 59.4903C157.612 59.8653 157.225 60.0821 156.85 59.9708ZM150.17 53.3961L152.719 50.6771C152.989 50.39 152.971 49.9329 152.672 49.6692L147.363 44.999L152.672 40.3287C152.971 40.065 152.994 39.6079 152.719 39.3208L150.17 36.6018C149.906 36.3206 149.461 36.303 149.174 36.5725L140.73 44.4833C140.431 44.7587 140.431 45.2333 140.73 45.5088L149.174 53.4254C149.461 53.6949 149.906 53.6832 150.17 53.3961ZM169.343 53.4312L177.787 45.5146C178.086 45.2392 178.086 44.7646 177.787 44.4891L169.343 36.5667C169.062 36.303 168.617 36.3147 168.347 36.596L165.798 39.3149C165.529 39.6021 165.546 40.0591 165.845 40.3228L171.154 44.999L165.845 49.6692C165.546 49.9329 165.523 50.39 165.798 50.6771L168.347 53.3961C168.611 53.6832 169.056 53.6949 169.343 53.4312Z" fill="#E0B2D7"/>
</svg>
