<?xml version="1.0" standalone="no"?>
<!DOCTYPE svg PUBLIC "-//W3C//DTD SVG 20010904//EN"
 "http://www.w3.org/TR/2001/REC-SVG-20010904/DTD/svg10.dtd">
<svg version="1.0" xmlns="http://www.w3.org/2000/svg"
 width="329.000000pt" height="329.000000pt" viewBox="0 0 329.000000 329.000000"
 preserveAspectRatio="xMidYMid meet">
<metadata>
Created by potrace 1.14, written by Peter Selinger 2001-2017
</metadata>
<g transform="translate(0.000000,329.000000) scale(0.100000,-0.100000)"
fill="#000000" stroke="none">
<path d="M2067 3274 c-173 -41 -291 -138 -397 -330 -26 -46 -279 -486 -458
-794 -68 -118 -133 -231 -144 -250 -39 -69 -292 -507 -341 -590 -27 -47 -59
-101 -70 -120 -10 -19 -62 -109 -115 -200 -52 -90 -106 -188 -119 -218 -25
-54 -54 -188 -48 -226 2 -11 6 -45 10 -74 3 -30 15 -79 27 -110 117 -316 482
-451 787 -292 58 31 152 119 191 180 18 28 35 50 39 50 4 0 18 -11 31 -25 51
-54 184 -82 266 -55 90 30 130 68 202 190 52 89 328 566 367 635 13 22 154
267 313 543 316 547 324 565 303 664 -6 28 -19 66 -27 85 -22 46 -108 120
-155 134 -21 7 -39 15 -39 18 0 4 9 34 21 66 29 84 36 221 15 305 -50 200
-203 358 -396 410 -64 18 -196 19 -263 4z"/>
</g>
</svg>
